<?xml version="1.0" encoding="UTF-8"?>
<svg version="1.1" xmlns="http://www.w3.org/2000/svg" width="454" height="342">
<path d="M0 0 C149.82 0 299.64 0 454 0 C454 112.86 454 225.72 454 342 C304.18 342 154.36 342 0 342 C0 229.14 0 116.28 0 0 Z " fill="#041C04" transform="translate(0,0)"/>
<path d="M0 0 C3.51978232 0.04423425 4.18876339 0.32939827 7.1875 2.5625 C9.22716583 5.34386249 9.9590874 6.98101966 10.25 10.375 C10.86488281 10.17003906 11.47976562 9.96507812 12.11328125 9.75390625 C26.52311925 4.95062692 42.69740936 4.17379631 57.25 9.375 C58.24 9.705 59.23 10.035 60.25 10.375 C60.3325 9.281875 60.415 8.18875 60.5 7.0625 C61.25 3.375 61.25 3.375 62.8125 1.4375 C66.48889481 -0.16503107 69.24175325 0.05688518 73.25 0.375 C74.24 1.035 75.23 1.695 76.25 2.375 C76.25 3.035 76.25 3.695 76.25 4.375 C77.57 4.705 78.89 5.035 80.25 5.375 C79.26 6.035 78.27 6.695 77.25 7.375 C76.92 8.365 76.59 9.355 76.25 10.375 C75.59 10.375 74.93 10.375 74.25 10.375 C73.92 11.365 73.59 12.355 73.25 13.375 C78.22509006 15.86254503 86.03350821 14.88453622 91.375 13.6875 C94.45075726 12.62984948 94.45075726 12.62984948 95.6875 9.75 C95.873125 8.96625 96.05875 8.1825 96.25 7.375 C96.91 7.375 97.57 7.375 98.25 7.375 C98.09876423 10.02162605 97.74998757 11.81778494 95.953125 13.8203125 C91.85 17.375 91.85 17.375 88.25 17.375 C88.25 18.035 88.25 18.695 88.25 19.375 C85.20863909 19.65203486 82.17011927 19.8972858 79.125 20.125 C78.2690625 20.20621094 77.413125 20.28742188 76.53125 20.37109375 C70.67311064 20.77665724 67.76539012 20.19457591 63.25 16.375 C63.25 17.035 63.25 17.695 63.25 18.375 C66.24736561 21.14179902 69.37697862 22.23069823 73.25 23.375 C71.25 25.375 71.25 25.375 68.25 26.375 C67.92 30.665 67.59 34.955 67.25 39.375 C67.91 39.375 68.57 39.375 69.25 39.375 C69.25 38.715 69.25 38.055 69.25 37.375 C73.34168814 36.66340206 75.26532647 36.72810116 78.80078125 39.05078125 C81.33591609 41.10517941 83.79581875 43.22502213 86.25 45.375 C89.59853877 48.11868167 91.91138829 48.88197594 96.25 49.375 C96.25 50.035 96.25 50.695 96.25 51.375 C89.23488121 52.82640389 89.23488121 52.82640389 85.25 51 C81.83028048 48.00774542 78.91327799 44.76892025 75.984375 41.30078125 C74.38694001 39.2912452 74.38694001 39.2912452 72.25 38.375 C73.30875074 41.77812738 74.25902154 44.38853231 76.25 47.375 C77.735 47.87 77.735 47.87 79.25 48.375 C81.32177241 51.0606309 82.19113377 53.02180262 82.75 56.375 C82.08494571 60.36532576 80.27125931 61.80692958 77.25 64.375 C77.91 65.035 78.57 65.695 79.25 66.375 C79.930625 65.385 79.930625 65.385 80.625 64.375 C81.16125 63.715 81.6975 63.055 82.25 62.375 C82.91 62.375 83.57 62.375 84.25 62.375 C84.25 64.355 84.25 66.335 84.25 68.375 C85.24 68.375 86.23 68.375 87.25 68.375 C87.25 69.035 87.25 69.695 87.25 70.375 C85.6 71.035 83.95 71.695 82.25 72.375 C82.25 71.385 82.25 70.395 82.25 69.375 C81.59 69.375 80.93 69.375 80.25 69.375 C79.92 71.025 79.59 72.675 79.25 74.375 C83.705 73.88 83.705 73.88 88.25 73.375 C88.25 74.365 88.25 75.355 88.25 76.375 C86.93 76.375 85.61 76.375 84.25 76.375 C84.25 77.035 84.25 77.695 84.25 78.375 C81.22265625 78.32617188 81.22265625 78.32617188 78.1953125 78.27734375 C76.16814596 78.24850758 76.16814596 78.24850758 74.25 79.375 C72.78678022 79.44703544 71.32030491 79.45886065 69.85546875 79.4375 C68.98212891 79.42976563 68.10878906 79.42203125 67.20898438 79.4140625 C65.37304454 79.38818597 63.53710699 79.36214642 61.70117188 79.3359375 C55.42078693 79.27653997 55.42078693 79.27653997 49.25 80.375 C49.25 79.715 49.25 79.055 49.25 78.375 C55.54718136 74.25293201 60.71828078 72.54796224 68.25 72.375 C67.59 71.715 66.93 71.055 66.25 70.375 C66.125 67.75 66.125 67.75 66.25 65.375 C67.57 64.715 68.89 64.055 70.25 63.375 C69.755 59.415 69.755 59.415 69.25 55.375 C71.23 55.045 73.21 54.715 75.25 54.375 C75.58 55.365 75.91 56.355 76.25 57.375 C75.26 57.375 74.27 57.375 73.25 57.375 C72.755 58.365 72.755 58.365 72.25 59.375 C73.9 59.375 75.55 59.375 77.25 59.375 C75.98171494 54.83031185 74.26327164 51.97148551 71.25 48.375 C70.92 47.385 70.59 46.395 70.25 45.375 C70.10304688 46.12523437 69.95609375 46.87546875 69.8046875 47.6484375 C67.21331718 59.47342621 62.3276978 68.38316277 52.25 75.375 C49.57131643 76.9995235 46.84164988 78.49239283 44.0625 79.9375 C43.38525879 80.29666504 42.70801758 80.65583008 42.01025391 81.02587891 C37.69935011 83.14379411 35.01045929 83.86822718 30.25 82.375 C19.70006699 77.67607278 11.44907005 72.1432316 5.25 62.375 C5.25 61.715 5.25 61.055 5.25 60.375 C3.93 60.045 2.61 59.715 1.25 59.375 C0.59 60.695 -0.07 62.015 -0.75 63.375 C0.57 64.035 1.89 64.695 3.25 65.375 C3.29254356 67.37454746 3.29080783 69.37541636 3.25 71.375 C2.92 71.705 2.59 72.035 2.25 72.375 C3.301875 72.50455078 3.301875 72.50455078 4.375 72.63671875 C11.06279288 73.62716634 15.83620412 75.31077501 21.25 79.375 C17.5 80.5 17.5 80.5 15.25 79.375 C13.75158604 79.30296087 12.24999258 79.29113935 10.75 79.3125 C9.863125 79.32023437 8.97625 79.32796875 8.0625 79.3359375 C6.6703125 79.35527344 6.6703125 79.35527344 5.25 79.375 C3.41672511 79.40046215 1.58338198 79.4215112 -0.25 79.4375 C-1.0646875 79.44910156 -1.879375 79.46070313 -2.71875 79.47265625 C-4.75 79.375 -4.75 79.375 -6.75 78.375 C-9.0829866 78.33477609 -11.41706666 78.33179753 -13.75 78.375 C-13.09 77.055 -12.43 75.735 -11.75 74.375 C-11.09 74.375 -10.43 74.375 -9.75 74.375 C-9.79125 73.281875 -9.8325 72.18875 -9.875 71.0625 C-9.75 67.375 -9.75 67.375 -7.75 64.375 C-8.74 63.323125 -8.74 63.323125 -9.75 62.25 C-12.09485971 58.87926417 -12.26301839 57.39364402 -11.75 53.375 C-10.9375 51.0625 -10.9375 51.0625 -9.75 49.375 C-8.265 48.88 -8.265 48.88 -6.75 48.375 C-4.63514786 45.01611719 -3.0016984 42.13009521 -1.75 38.375 C-1.09 38.375 -0.43 38.375 0.25 38.375 C0.25 37.715 0.25 37.055 0.25 36.375 C-6.17250233 37.44930209 -6.17250233 37.44930209 -12.3125 39.5 C-16.61134359 41.04317462 -21.44994588 41.45461724 -25.6640625 39.4765625 C-27.3125 38.375 -27.3125 38.375 -29.75 36.375 C-29.42 35.715 -29.09 35.055 -28.75 34.375 C-28.09 34.705 -27.43 35.035 -26.75 35.375 C-25.29420413 35.47055417 -23.8339204 35.50484691 -22.375 35.5 C-21.60414062 35.50257813 -20.83328125 35.50515625 -20.0390625 35.5078125 C-17.8171811 35.37889788 -15.88381492 34.98883717 -13.75 34.375 C-14.70261719 34.20484375 -15.65523437 34.0346875 -16.63671875 33.859375 C-17.89097656 33.61703125 -19.14523438 33.3746875 -20.4375 33.125 C-21.67886719 32.89296875 -22.92023437 32.6609375 -24.19921875 32.421875 C-28.07323581 31.27970055 -30.09820583 30.42858116 -32.75 27.375 C-33.12398847 24.56260674 -33.23293015 22.39907845 -33.0625 19.625 C-33.02866211 18.57892578 -33.02866211 18.57892578 -32.99414062 17.51171875 C-32.93547048 15.79855065 -32.84579256 14.08649377 -32.75 12.375 C-32.16605469 13.15230469 -31.58210938 13.92960938 -30.98046875 14.73046875 C-28.01392236 18.24772253 -25.12374612 19.99707644 -20.75 21.375 C-18.50689149 21.47904766 -18.50689149 21.47904766 -16.25 21.3125 C-11.00853059 21.01168523 -7.8102478 23.27726326 -3.75 26.375 C-3.49089844 25.74722656 -3.23179688 25.11945313 -2.96484375 24.47265625 C-1.09233418 21.23941625 1.87054818 20.73863845 5.25 19.375 C7.13029239 17.83548953 7.13029239 17.83548953 8.25 16.375 C7.755 15.88 7.755 15.88 7.25 15.375 C6.198125 16.303125 6.198125 16.303125 5.125 17.25 C2.1199559 19.47111955 -0.12007404 20.54314197 -3.75 21.375 C-6.5 20.9375 -6.5 20.9375 -8.75 20.375 C-9.41 20.705 -10.07 21.035 -10.75 21.375 C-10.75 20.715 -10.75 20.055 -10.75 19.375 C-11.905 19.49875 -13.06 19.6225 -14.25 19.75 C-18.94950793 19.75837702 -21.62553599 17.97436272 -25.18359375 15.04296875 C-27.17055065 12.92718173 -27.75 11.27305298 -27.75 8.375 C-26.28515625 9.64453125 -24.8203125 10.9140625 -23.35546875 12.18359375 C-20.17960058 14.54038157 -17.12365592 14.53664413 -13.3125 14.5625 C-11.89130859 14.58376953 -11.89130859 14.58376953 -10.44140625 14.60546875 C-7.70498356 14.37114518 -6.08571877 13.77201383 -3.75 12.375 C-4.245 11.941875 -4.74 11.50875 -5.25 11.0625 C-6.75 9.375 -6.75 9.375 -6.75 6.375 C-7.74 6.045 -8.73 5.715 -9.75 5.375 C-8.945625 4.735625 -8.14125 4.09625 -7.3125 3.4375 C-3.47318339 0.34731834 -3.47318339 0.34731834 0 0 Z " fill="#1C4834" transform="translate(32.75,142.625)"/>
<path d="M0 0 C3.51978232 0.04423425 4.18876339 0.32939827 7.1875 2.5625 C9.22716583 5.34386249 9.9590874 6.98101966 10.25 10.375 C10.86488281 10.17003906 11.47976562 9.96507812 12.11328125 9.75390625 C26.52311925 4.95062692 42.69740936 4.17379631 57.25 9.375 C58.24 9.705 59.23 10.035 60.25 10.375 C60.3325 9.281875 60.415 8.18875 60.5 7.0625 C61.25 3.375 61.25 3.375 62.8125 1.4375 C66.48889481 -0.16503107 69.24175325 0.05688518 73.25 0.375 C74.24 1.035 75.23 1.695 76.25 2.375 C76.25 3.035 76.25 3.695 76.25 4.375 C77.57 4.705 78.89 5.035 80.25 5.375 C79.26 6.035 78.27 6.695 77.25 7.375 C76.92 8.365 76.59 9.355 76.25 10.375 C75.59 10.375 74.93 10.375 74.25 10.375 C73.92 11.365 73.59 12.355 73.25 13.375 C78.22509006 15.86254503 86.03350821 14.88453622 91.375 13.6875 C94.45075726 12.62984948 94.45075726 12.62984948 95.6875 9.75 C95.873125 8.96625 96.05875 8.1825 96.25 7.375 C96.91 7.375 97.57 7.375 98.25 7.375 C98.09876423 10.02162605 97.74998757 11.81778494 95.953125 13.8203125 C91.85 17.375 91.85 17.375 88.25 17.375 C88.25 18.035 88.25 18.695 88.25 19.375 C85.20863909 19.65203486 82.17011927 19.8972858 79.125 20.125 C78.2690625 20.20621094 77.413125 20.28742188 76.53125 20.37109375 C70.67311064 20.77665724 67.76539012 20.19457591 63.25 16.375 C63.25 17.035 63.25 17.695 63.25 18.375 C66.24736561 21.14179902 69.37697862 22.23069823 73.25 23.375 C71.25 25.375 71.25 25.375 68.25 26.375 C67.92 30.665 67.59 34.955 67.25 39.375 C67.91 39.375 68.57 39.375 69.25 39.375 C69.25 38.715 69.25 38.055 69.25 37.375 C73.34168814 36.66340206 75.26532647 36.72810116 78.80078125 39.05078125 C81.33591609 41.10517941 83.79581875 43.22502213 86.25 45.375 C89.59853877 48.11868167 91.91138829 48.88197594 96.25 49.375 C96.25 50.035 96.25 50.695 96.25 51.375 C89.23488121 52.82640389 89.23488121 52.82640389 85.25 51 C81.83028048 48.00774542 78.91327799 44.76892025 75.984375 41.30078125 C74.38694001 39.2912452 74.38694001 39.2912452 72.25 38.375 C73.30875074 41.77812738 74.25902154 44.38853231 76.25 47.375 C77.735 47.87 77.735 47.87 79.25 48.375 C81.32177241 51.0606309 82.19113377 53.02180262 82.75 56.375 C82.08494571 60.36532576 80.27125931 61.80692958 77.25 64.375 C77.91 65.035 78.57 65.695 79.25 66.375 C79.930625 65.385 79.930625 65.385 80.625 64.375 C81.16125 63.715 81.6975 63.055 82.25 62.375 C82.91 62.375 83.57 62.375 84.25 62.375 C84.25 64.355 84.25 66.335 84.25 68.375 C85.24 68.375 86.23 68.375 87.25 68.375 C87.25 69.035 87.25 69.695 87.25 70.375 C85.6 71.035 83.95 71.695 82.25 72.375 C82.25 71.385 82.25 70.395 82.25 69.375 C81.59 69.375 80.93 69.375 80.25 69.375 C79.92 71.025 79.59 72.675 79.25 74.375 C83.705 73.88 83.705 73.88 88.25 73.375 C88.25 74.365 88.25 75.355 88.25 76.375 C86.93 76.375 85.61 76.375 84.25 76.375 C84.25 77.035 84.25 77.695 84.25 78.375 C81.22265625 78.32617188 81.22265625 78.32617188 78.1953125 78.27734375 C76.16814596 78.24850758 76.16814596 78.24850758 74.25 79.375 C72.78678022 79.44703544 71.32030491 79.45886065 69.85546875 79.4375 C68.98212891 79.42976563 68.10878906 79.42203125 67.20898438 79.4140625 C65.37304454 79.38818597 63.53710699 79.36214642 61.70117188 79.3359375 C55.42078693 79.27653997 55.42078693 79.27653997 49.25 80.375 C49.25 79.715 49.25 79.055 49.25 78.375 C55.54718136 74.25293201 60.71828078 72.54796224 68.25 72.375 C67.59 71.715 66.93 71.055 66.25 70.375 C66.125 67.75 66.125 67.75 66.25 65.375 C67.57 64.715 68.89 64.055 70.25 63.375 C69.755 59.415 69.755 59.415 69.25 55.375 C71.23 55.045 73.21 54.715 75.25 54.375 C75.58 55.365 75.91 56.355 76.25 57.375 C75.26 57.375 74.27 57.375 73.25 57.375 C72.755 58.365 72.755 58.365 72.25 59.375 C73.9 59.375 75.55 59.375 77.25 59.375 C75.98171494 54.83031185 74.26327164 51.97148551 71.25 48.375 C70.92 47.385 70.59 46.395 70.25 45.375 C70.10304688 46.12523437 69.95609375 46.87546875 69.8046875 47.6484375 C67.21331718 59.47342621 62.3276978 68.38316277 52.25 75.375 C49.57131643 76.9995235 46.84164988 78.49239283 44.0625 79.9375 C43.38525879 80.29666504 42.70801758 80.65583008 42.01025391 81.02587891 C37.69935011 83.14379411 35.01045929 83.86822718 30.25 82.375 C19.70006699 77.67607278 11.44907005 72.1432316 5.25 62.375 C5.25 61.715 5.25 61.055 5.25 60.375 C3.93 60.045 2.61 59.715 1.25 59.375 C0.59 60.695 -0.07 62.015 -0.75 63.375 C0.57 64.035 1.89 64.695 3.25 65.375 C3.29254356 67.37454746 3.29080783 69.37541636 3.25 71.375 C2.92 71.705 2.59 72.035 2.25 72.375 C3.301875 72.50455078 3.301875 72.50455078 4.375 72.63671875 C11.06279288 73.62716634 15.83620412 75.31077501 21.25 79.375 C17.5 80.5 17.5 80.5 15.25 79.375 C13.75158604 79.30296087 12.24999258 79.29113935 10.75 79.3125 C9.863125 79.32023437 8.97625 79.32796875 8.0625 79.3359375 C6.6703125 79.35527344 6.6703125 79.35527344 5.25 79.375 C3.41672511 79.40046215 1.58338198 79.4215112 -0.25 79.4375 C-1.0646875 79.44910156 -1.879375 79.46070313 -2.71875 79.47265625 C-4.75 79.375 -4.75 79.375 -6.75 78.375 C-9.0829866 78.33477609 -11.41706666 78.33179753 -13.75 78.375 C-13.09 77.055 -12.43 75.735 -11.75 74.375 C-11.09 74.375 -10.43 74.375 -9.75 74.375 C-9.79125 73.281875 -9.8325 72.18875 -9.875 71.0625 C-9.75 67.375 -9.75 67.375 -7.75 64.375 C-8.74 63.323125 -8.74 63.323125 -9.75 62.25 C-12.09485971 58.87926417 -12.26301839 57.39364402 -11.75 53.375 C-10.9375 51.0625 -10.9375 51.0625 -9.75 49.375 C-8.265 48.88 -8.265 48.88 -6.75 48.375 C-4.63514786 45.01611719 -3.0016984 42.13009521 -1.75 38.375 C-1.09 38.375 -0.43 38.375 0.25 38.375 C0.25 37.715 0.25 37.055 0.25 36.375 C-6.17250233 37.44930209 -6.17250233 37.44930209 -12.3125 39.5 C-16.61134359 41.04317462 -21.44994588 41.45461724 -25.6640625 39.4765625 C-27.3125 38.375 -27.3125 38.375 -29.75 36.375 C-29.42 35.715 -29.09 35.055 -28.75 34.375 C-28.09 34.705 -27.43 35.035 -26.75 35.375 C-25.29420413 35.47055417 -23.8339204 35.50484691 -22.375 35.5 C-21.60414062 35.50257813 -20.83328125 35.50515625 -20.0390625 35.5078125 C-17.8171811 35.37889788 -15.88381492 34.98883717 -13.75 34.375 C-14.70261719 34.20484375 -15.65523437 34.0346875 -16.63671875 33.859375 C-17.89097656 33.61703125 -19.14523438 33.3746875 -20.4375 33.125 C-21.67886719 32.89296875 -22.92023437 32.6609375 -24.19921875 32.421875 C-28.07323581 31.27970055 -30.09820583 30.42858116 -32.75 27.375 C-33.12398847 24.56260674 -33.23293015 22.39907845 -33.0625 19.625 C-33.02866211 18.57892578 -33.02866211 18.57892578 -32.99414062 17.51171875 C-32.93547048 15.79855065 -32.84579256 14.08649377 -32.75 12.375 C-32.16605469 13.15230469 -31.58210938 13.92960938 -30.98046875 14.73046875 C-28.01392236 18.24772253 -25.12374612 19.99707644 -20.75 21.375 C-18.50689149 21.47904766 -18.50689149 21.47904766 -16.25 21.3125 C-11.00853059 21.01168523 -7.8102478 23.27726326 -3.75 26.375 C-3.49089844 25.74722656 -3.23179688 25.11945313 -2.96484375 24.47265625 C-1.09233418 21.23941625 1.87054818 20.73863845 5.25 19.375 C7.13029239 17.83548953 7.13029239 17.83548953 8.25 16.375 C7.755 15.88 7.755 15.88 7.25 15.375 C6.198125 16.303125 6.198125 16.303125 5.125 17.25 C2.1199559 19.47111955 -0.12007404 20.54314197 -3.75 21.375 C-6.5 20.9375 -6.5 20.9375 -8.75 20.375 C-9.41 20.705 -10.07 21.035 -10.75 21.375 C-10.75 20.715 -10.75 20.055 -10.75 19.375 C-11.905 19.49875 -13.06 19.6225 -14.25 19.75 C-18.94950793 19.75837702 -21.62553599 17.97436272 -25.18359375 15.04296875 C-27.17055065 12.92718173 -27.75 11.27305298 -27.75 8.375 C-26.28515625 9.64453125 -24.8203125 10.9140625 -23.35546875 12.18359375 C-20.17960058 14.54038157 -17.12365592 14.53664413 -13.3125 14.5625 C-11.89130859 14.58376953 -11.89130859 14.58376953 -10.44140625 14.60546875 C-7.70498356 14.37114518 -6.08571877 13.77201383 -3.75 12.375 C-4.245 11.941875 -4.74 11.50875 -5.25 11.0625 C-6.75 9.375 -6.75 9.375 -6.75 6.375 C-7.74 6.045 -8.73 5.715 -9.75 5.375 C-8.945625 4.735625 -8.14125 4.09625 -7.3125 3.4375 C-3.47318339 0.34731834 -3.47318339 0.34731834 0 0 Z M13.25 13.375 C11.75774489 16.76443476 11.75774489 16.76443476 11.25 20.375 C10.42886719 20.96539062 9.60773437 21.55578125 8.76171875 22.1640625 C5.95799033 24.19280525 5.95799033 24.19280525 5.54296875 27.58984375 C5.50816406 28.81832031 5.47335938 30.04679687 5.4375 31.3125 C5.41598877 31.9720166 5.39447754 32.6315332 5.37231445 33.31103516 C5.33237934 34.67078516 5.30335745 36.03089874 5.28515625 37.39111328 C5.25239575 39.2398067 5.1597868 41.08717129 5.0625 42.93359375 C4.71335933 52.19673226 6.55016867 58.29813998 12.375 65.5 C18.0369997 71.58725719 25.25334266 76.91449005 33.25 79.375 C43.67758363 78.3805438 53.26434194 71.40503531 59.81640625 63.48046875 C63.92830882 57.91592824 64.41655131 53.72161762 64.375 47 C64.37016602 46.19868652 64.36533203 45.39737305 64.36035156 44.57177734 C64.31186166 39.71211971 64.23169944 34.85465496 64 30 C63.95359375 29.00226563 63.9071875 28.00453125 63.859375 26.9765625 C63.09831283 23.72741247 61.66049032 22.60831695 59.25 20.375 C58.899375 19.199375 58.54875 18.02375 58.1875 16.8125 C56.08525457 13.08270973 55.71945313 12.70889395 51.875 11.4375 C41.17272197 9.14007765 22.94385574 7.43829178 13.25 13.375 Z " fill="#8E8525" transform="translate(32.75,142.625)"/>
<path d="M0 0 C0.58394531 0.77730469 1.16789063 1.55460938 1.76953125 2.35546875 C4.73607764 5.87272253 7.62625388 7.62207644 12 9 C14.24310851 9.10404766 14.24310851 9.10404766 16.5 8.9375 C21.17869114 8.6632319 23.4842252 10.30675976 27.2109375 12.95703125 C29.07167323 14.27213633 29.07167323 14.27213633 31.875 13.75 C32.57625 13.5025 33.2775 13.255 34 13 C34.66 13.33 35.32 13.66 36 14 C36.068469 17.90273317 36.0725656 21.51018217 35.5 25.375 C34.41363238 33.25116528 34.92676341 40.33642903 37 48 C36.01 47.67 35.02 47.34 34 47 C33.34 48.32 32.68 49.64 32 51 C33.32 51.66 34.64 52.32 36 53 C36.04254356 54.99954746 36.04080783 57.00041636 36 59 C35.67 59.33 35.34 59.66 35 60 C35.70125 60.08636719 36.4025 60.17273438 37.125 60.26171875 C43.81279288 61.25216634 48.58620412 62.93577501 54 67 C50.25 68.125 50.25 68.125 48 67 C46.50158604 66.92796087 44.99999258 66.91613935 43.5 66.9375 C42.613125 66.94523437 41.72625 66.95296875 40.8125 66.9609375 C39.4203125 66.98027344 39.4203125 66.98027344 38 67 C36.16672511 67.02546215 34.33338198 67.0465112 32.5 67.0625 C31.6853125 67.07410156 30.870625 67.08570313 30.03125 67.09765625 C28 67 28 67 26 66 C23.6670134 65.95977609 21.33293334 65.95679753 19 66 C19.66 64.68 20.32 63.36 21 62 C21.66 62 22.32 62 23 62 C22.95875 60.906875 22.9175 59.81375 22.875 58.6875 C23 55 23 55 25 52 C24.01 50.948125 24.01 50.948125 23 49.875 C20.65514029 46.50426417 20.48698161 45.01864402 21 41 C21.8125 38.6875 21.8125 38.6875 23 37 C24.485 36.505 24.485 36.505 26 36 C28.11485214 32.64111719 29.7483016 29.75509521 31 26 C31.66 26 32.32 26 33 26 C33 25.34 33 24.68 33 24 C26.57749767 25.07430209 26.57749767 25.07430209 20.4375 27.125 C16.13865641 28.66817462 11.30005412 29.07961724 7.0859375 27.1015625 C5.4375 26 5.4375 26 3 24 C3.33 23.34 3.66 22.68 4 22 C4.66 22.33 5.32 22.66 6 23 C7.45579587 23.09555417 8.9160796 23.12984691 10.375 23.125 C11.14585938 23.12757813 11.91671875 23.13015625 12.7109375 23.1328125 C14.9328189 23.00389788 16.86618508 22.61383717 19 22 C18.04738281 21.82984375 17.09476563 21.6596875 16.11328125 21.484375 C14.85902344 21.24203125 13.60476562 20.9996875 12.3125 20.75 C11.07113281 20.51796875 9.82976563 20.2859375 8.55078125 20.046875 C4.67676419 18.90470055 2.65179417 18.05358116 0 15 C-0.37398847 12.18760674 -0.48293015 10.02407845 -0.3125 7.25 C-0.27866211 6.20392578 -0.27866211 6.20392578 -0.24414062 5.13671875 C-0.18547048 3.42355065 -0.09579256 1.71149377 0 0 Z " fill="#22330D" transform="translate(0,155)"/>
<path d="M0 0 C3.51978232 0.04423425 4.18876339 0.32939827 7.1875 2.5625 C9.22716583 5.34386249 9.9590874 6.98101966 10.25 10.375 C10.86488281 10.17003906 11.47976562 9.96507812 12.11328125 9.75390625 C26.52311925 4.95062692 42.69740936 4.17379631 57.25 9.375 C58.24 9.705 59.23 10.035 60.25 10.375 C60.3325 9.281875 60.415 8.18875 60.5 7.0625 C61.25 3.375 61.25 3.375 62.8125 1.4375 C66.48889481 -0.16503107 69.24175325 0.05688518 73.25 0.375 C74.24 1.035 75.23 1.695 76.25 2.375 C76.25 3.035 76.25 3.695 76.25 4.375 C77.57 4.705 78.89 5.035 80.25 5.375 C79.26 6.035 78.27 6.695 77.25 7.375 C76.92 8.365 76.59 9.355 76.25 10.375 C75.59 10.375 74.93 10.375 74.25 10.375 C73.92 11.365 73.59 12.355 73.25 13.375 C78.22509006 15.86254503 86.03350821 14.88453622 91.375 13.6875 C94.45075726 12.62984948 94.45075726 12.62984948 95.6875 9.75 C95.9659375 8.574375 95.9659375 8.574375 96.25 7.375 C96.91 7.375 97.57 7.375 98.25 7.375 C98.09876423 10.02162605 97.74998757 11.81778494 95.953125 13.8203125 C91.85 17.375 91.85 17.375 88.25 17.375 C88.25 18.035 88.25 18.695 88.25 19.375 C85.20863909 19.65203486 82.17011927 19.8972858 79.125 20.125 C78.2690625 20.20621094 77.413125 20.28742188 76.53125 20.37109375 C70.769789 20.76996413 67.88528525 20.16236721 63.25 16.375 C61.60380887 15.65926473 59.94271945 14.9724304 58.25 14.375 C58.724375 15.2825 59.19875 16.19 59.6875 17.125 C60.89628821 19.63927949 61.72993886 21.67068209 62.25 24.375 C59.59730103 21.89914762 57.56989897 19.78473899 56.25 16.375 C56.25 15.385 56.25 14.395 56.25 13.375 C42.81385008 9.85076395 26.68614992 9.85076395 13.25 13.375 C12.92 15.685 12.59 17.995 12.25 20.375 C11.92 20.375 11.59 20.375 11.25 20.375 C11.25 18.395 11.25 16.415 11.25 14.375 C8.40829669 14.79599308 7.1442552 15.46126549 4.875 17.3125 C1.99262416 19.57722387 -0.18715532 20.55851476 -3.75 21.375 C-6.5 20.9375 -6.5 20.9375 -8.75 20.375 C-9.41 20.705 -10.07 21.035 -10.75 21.375 C-10.75 20.715 -10.75 20.055 -10.75 19.375 C-11.905 19.49875 -13.06 19.6225 -14.25 19.75 C-18.94950793 19.75837702 -21.62553599 17.97436272 -25.18359375 15.04296875 C-27.17055065 12.92718173 -27.75 11.27305298 -27.75 8.375 C-26.28515625 9.64453125 -24.8203125 10.9140625 -23.35546875 12.18359375 C-20.17960058 14.54038157 -17.12365592 14.53664413 -13.3125 14.5625 C-11.89130859 14.58376953 -11.89130859 14.58376953 -10.44140625 14.60546875 C-7.70498356 14.37114518 -6.08571877 13.77201383 -3.75 12.375 C-4.245 11.941875 -4.74 11.50875 -5.25 11.0625 C-6.75 9.375 -6.75 9.375 -6.75 6.375 C-7.74 6.045 -8.73 5.715 -9.75 5.375 C-8.945625 4.735625 -8.14125 4.09625 -7.3125 3.4375 C-3.47318339 0.34731834 -3.47318339 0.34731834 0 0 Z " fill="#8D872F" transform="translate(32.75,142.625)"/>
<path d="M0 0 C19.73489336 0 19.73489336 0 24.578125 3.9609375 C26.92640627 7.32852767 26.90515459 10.30248128 26.578125 14.30859375 C25.74089718 18.20622868 24.25499021 20.72001424 22 24 C21.67 24.99 21.34 25.98 21 27 C23.63338754 29.37346877 26.3032938 31.69874718 29 34 C29.58523438 34.50917969 30.17046875 35.01835937 30.7734375 35.54296875 C35.27806227 39.14878341 39.28802536 39.85752444 45 40 C45 41.65 45 43.3 45 45 C40.75726864 46.35767404 36.43984306 46.93799582 32.19140625 45.3046875 C27.33737833 42.57997328 23.84263489 38.81198853 20.0625 34.8125 C15.34157916 29.82187629 11.95610355 27.46374024 5 27 C5 30.3 5 33.6 5 37 C3.35 37 1.7 37 0 37 C0 24.79 0 12.58 0 0 Z " fill="#A4A149" transform="translate(336,139)"/>
<path d="M0 0 C4.09168814 -0.71159794 6.01532647 -0.64689884 9.55078125 1.67578125 C12.08591609 3.73017941 14.54581875 5.85002213 17 8 C20.34853877 10.74368167 22.66138829 11.50697594 27 12 C27 12.66 27 13.32 27 14 C19.98488121 15.45140389 19.98488121 15.45140389 16 13.625 C12.58028048 10.63274542 9.66327799 7.39392025 6.734375 3.92578125 C5.13694001 1.9162452 5.13694001 1.9162452 3 1 C4.05875074 4.40312738 5.00902154 7.01353231 7 10 C7.99 10.33 8.98 10.66 10 11 C12.07177241 13.6856309 12.94113377 15.64680262 13.5 19 C12.83494571 22.99032576 11.02125931 24.43192958 8 27 C8.66 27.66 9.32 28.32 10 29 C10.45375 28.34 10.9075 27.68 11.375 27 C11.91125 26.34 12.4475 25.68 13 25 C13.66 25 14.32 25 15 25 C15 26.98 15 28.96 15 31 C15.99 31 16.98 31 18 31 C18 31.66 18 32.32 18 33 C16.35 33.66 14.7 34.32 13 35 C13 34.01 13 33.02 13 32 C12.34 32 11.68 32 11 32 C10.67 33.65 10.34 35.3 10 37 C14.455 36.505 14.455 36.505 19 36 C19 36.99 19 37.98 19 39 C17.68 39 16.36 39 15 39 C15 39.66 15 40.32 15 41 C12.98177083 40.96744792 10.96354167 40.93489583 8.9453125 40.90234375 C6.91814596 40.87350758 6.91814596 40.87350758 5 42 C3.53678022 42.07203544 2.07030491 42.08386065 0.60546875 42.0625 C-0.26787109 42.05476563 -1.14121094 42.04703125 -2.04101562 42.0390625 C-3.87695546 42.01318597 -5.71289301 41.98714642 -7.54882812 41.9609375 C-13.82921307 41.90153997 -13.82921307 41.90153997 -20 43 C-20 42.34 -20 41.68 -20 41 C-13.70281864 36.87793201 -8.53171922 35.17296224 -1 35 C-1.66 34.34 -2.32 33.68 -3 33 C-3.125 30.375 -3.125 30.375 -3 28 C-1.68 27.34 -0.36 26.68 1 26 C0.67 23.36 0.34 20.72 0 18 C1.98 17.67 3.96 17.34 6 17 C6.33 17.99 6.66 18.98 7 20 C6.01 20 5.02 20 4 20 C3.67 20.66 3.34 21.32 3 22 C4.65 22 6.3 22 8 22 C6.73171494 17.45531185 5.01327164 14.59648551 2 11 C1.67 10.01 1.34 9.02 1 8 C0.67 9.98 0.34 11.96 0 14 C-0.33 14 -0.66 14 -1 14 C-1.02694851 12.04174127 -1.04637218 10.08337774 -1.0625 8.125 C-1.07410156 7.03445312 -1.08570312 5.94390625 -1.09765625 4.8203125 C-1 2 -1 2 0 0 Z " fill="#7A7B28" transform="translate(102,180)"/>
<path d="M0 0 C1.98 0 3.96 0 6 0 C6.33 4.95 6.66 9.9 7 15 C8.35544922 13.37578125 8.35544922 13.37578125 9.73828125 11.71875 C10.92923251 10.31211465 12.1206637 8.90588554 13.3125 7.5 C13.90740234 6.78457031 14.50230469 6.06914062 15.11523438 5.33203125 C15.98051758 4.31689453 15.98051758 4.31689453 16.86328125 3.28125 C17.39219971 2.65283203 17.92111816 2.02441406 18.46606445 1.37695312 C20 0 20 0 23 0 C22.91255135 2.88580531 22.38077932 4.58928226 20.41015625 6.71484375 C19.1586506 7.88445128 17.8868189 9.03276391 16.59375 10.15625 C14.50522438 12.57238749 13.97670699 13.78556434 14 17 C15.52342909 19.43395053 16.98018658 21.45300195 18.8125 23.625 C19.73617382 24.76261769 20.65936763 25.90062533 21.58203125 27.0390625 C22.37996094 28.01617187 23.17789062 28.99328125 24 30 C26 33 26 33 26 37 C23.35546875 37.46484375 23.35546875 37.46484375 20 37 C17.67897051 34.8169901 16.03946209 32.22661075 14.3125 29.5625 C13.3777201 28.16351835 12.43657564 26.76876268 11.48828125 25.37890625 C11.08134033 24.7557251 10.67439941 24.13254395 10.25512695 23.49047852 C8.96860642 21.6995526 8.96860642 21.6995526 6 21 C6 26.28 6 31.56 6 37 C4.02 37 2.04 37 0 37 C0 24.79 0 12.58 0 0 Z " fill="#A39F4A" transform="translate(244,139)"/>
<path d="M0 0 C7.92 0 15.84 0 24 0 C24 1.65 24 3.3 24 5 C18.39 5 12.78 5 7 5 C7 8.63 7 12.26 7 16 C10.3 16 13.6 16 17 16 C17 17.65 17 19.3 17 21 C13.37 21 9.74 21 6 21 C6 24.96 6 28.92 6 33 C11.94 33 17.88 33 24 33 C24 34.32 24 35.64 24 37 C16.08 37 8.16 37 0 37 C0 24.79 0 12.58 0 0 Z " fill="#919142" transform="translate(201,139)"/>
<path d="M0 0 C1.98 0 3.96 0 6 0 C8.01820083 5.99405645 10.01601878 11.99453615 12 18 C12.22333008 18.67047363 12.44666016 19.34094727 12.67675781 20.03173828 C13.25231436 21.76804643 13.814133 23.50889129 14.375 25.25 C14.69210937 26.22453125 15.00921875 27.1990625 15.3359375 28.203125 C16.05312225 31.22373843 16.1189823 33.90646027 16 37 C14.35 37 12.7 37 11 37 C8.7981069 32.32097716 8 30.37483542 8 25 C4.04 25 0.08 25 -4 25 C-4.99 28.96 -5.98 32.92 -7 37 C-7.99 37 -8.98 37 -10 37 C-9.46367163 29.85140404 -7.83007893 23.59676364 -5.5625 16.8125 C-5.09360352 15.37487305 -5.09360352 15.37487305 -4.61523438 13.90820312 C-3.75253327 11.26903081 -2.8789939 8.63378342 -2 6 C-1.39478516 4.18048828 -1.39478516 4.18048828 -0.77734375 2.32421875 C-0.52082031 1.55722656 -0.26429688 0.79023438 0 0 Z " fill="#A4A14C" transform="translate(395,139)"/>
<path d="M0 0 C1.98 0 3.96 0 6 0 C9.05908793 7.36784582 11.64294214 14.76569141 13.8125 22.4375 C14.14060669 23.57227783 14.14060669 23.57227783 14.4753418 24.72998047 C15.63159658 28.92972118 16.24404755 32.6001713 16 37 C14.35 37 12.7 37 11 37 C10.49440092 35.56445975 9.9957251 34.1264798 9.5 32.6875 C9.2215625 31.88699219 8.943125 31.08648437 8.65625 30.26171875 C8 28 8 28 8 25 C4.04 25 0.08 25 -4 25 C-4.99 28.96 -5.98 32.92 -7 37 C-7.99 37 -8.98 37 -10 37 C-9.31588272 30.41185684 -7.4548169 24.26963171 -5.5625 17.9375 C-5.09360352 16.34325195 -5.09360352 16.34325195 -4.61523438 14.71679688 C-3.15741998 9.78241875 -1.67790335 4.86507655 0 0 Z " fill="#A29F4B" transform="translate(300,139)"/>
<path d="M0 0 C0.66 0 1.32 0 2 0 C1.42757193 4.00699649 0.58598859 6.8483264 -2 10 C-4.9060298 11.59431727 -7.9126762 12.80490692 -11 14 C-11.99 14.495 -11.99 14.495 -13 15 C-15.20266316 15.38787256 -17.41224568 15.73709495 -19.625 16.0625 C-20.81351563 16.23910156 -22.00203125 16.41570312 -23.2265625 16.59765625 C-24.14179687 16.73042969 -25.05703125 16.86320312 -26 17 C-15.49060385 16.22538004 -6.32400187 15.38081165 3 10 C2.42411162 12.87344306 2.11087214 13.8856631 0 16.0625 C-5.82664687 19.82554277 -12.16866726 21.27326247 -19 22 C-15.16275828 22.90413673 -11.62497726 23.10576898 -7.6875 23.0625 C-6.61886719 23.05347656 -5.55023438 23.04445312 -4.44921875 23.03515625 C-3.23685547 23.01775391 -3.23685547 23.01775391 -2 23 C-4.625 26.875 -4.625 26.875 -8 28 C-13.93876331 28.58822037 -17.71370764 27.87298498 -23 25 C-26.73771834 24.2863276 -26.73771834 24.2863276 -30 24 C-31.30518372 20.08444884 -30.80464567 18.68448492 -29 15 C-26.32693231 12.89881458 -23.4927756 11 -20 11 C-20 10.34 -20 9.68 -20 9 C-18.845 9.061875 -17.69 9.12375 -16.5 9.1875 C-11.92363148 9.16315761 -7.94824253 8.39526713 -4 6 C-1.63297941 2.95202627 -1.63297941 2.95202627 0 0 Z " fill="#3D4816" transform="translate(134,155)"/>
<path d="M0 0 C0.99 0 1.98 0 3 0 C3.20496094 0.90363281 3.40992187 1.80726562 3.62109375 2.73828125 C3.89050781 3.91777344 4.15992187 5.09726563 4.4375 6.3125 C4.70433594 7.48425781 4.97117187 8.65601563 5.24609375 9.86328125 C5.95313969 13.00236971 5.95313969 13.00236971 7 16 C11.7963081 15.28564795 11.7963081 15.28564795 15.35546875 12.30859375 C16.32087881 10.58340249 17.16943988 8.79400985 18 7 C19.32 7.33 20.64 7.66 22 8 C22 8.99 22 9.98 22 11 C21.34 11.33 20.68 11.66 20 12 C18.17080175 15.7659964 17.71339517 18.719629 17 23 C7.1 23 -2.8 23 -13 23 C-14 19 -15 15 -16 11 C-16.66 11 -17.32 11 -18 11 C-18 9.68 -18 8.36 -18 7 C-16.68 7 -15.36 7 -14 7 C-12.92474806 9.65228812 -11.90543849 12.28368454 -11 15 C-7.62599422 15.41725678 -7.62599422 15.41725678 -4 15 C-0.04342717 11.04342717 -0.29891908 5.30839057 0 0 Z " fill="#E8D886" transform="translate(66,124)"/>
<path d="M0 0 C8.58 0 17.16 0 26 0 C26 1.32 26 2.64 26 4 C22.7 4 19.4 4 16 4 C16 14.89 16 25.78 16 37 C14.02 37 12.04 37 10 37 C10 26.11 10 15.22 10 4 C6.7 4 3.4 4 0 4 C0 2.68 0 1.36 0 0 Z " fill="#9E9C47" transform="translate(156,139)"/>
<path d="M0 0 C18.34425879 -1.13730192 18.34425879 -1.13730192 24.578125 3.9609375 C26.92640627 7.32852767 26.90515459 10.30248128 26.578125 14.30859375 C25.74089718 18.20622868 24.25499021 20.72001424 22 24 C21.67 24.99 21.34 25.98 21 27 C31.10712667 36.75926321 31.10712667 36.75926321 44 41 C43.505 41.99 43.505 41.99 43 43 C37.61430591 43.51292325 35.22455155 42.29515021 31 39 C28.95047135 37.22131636 26.92116662 35.42282818 24.90234375 33.609375 C22.74818368 31.78696442 20.42086432 30.43738819 18 29 C18 28.34 18 27.68 18 27 C17.34 27 16.68 27 16 27 C15.67 26.34 15.34 25.68 15 25 C12.47266765 24.34444881 12.47266765 24.34444881 10 24 C10.556875 23.773125 11.11375 23.54625 11.6875 23.3125 C14.63694755 21.63848923 16.6752269 19.45043651 19 17 C19.33 16.67 19.66 16.34 20 16 C20.41746608 13.12635209 20.41746608 13.12635209 20 10 C17.57226958 7.00579915 15.61760563 5.17480129 11.72265625 4.75390625 C9.95199428 4.62650179 8.18115821 4.50149401 6.41015625 4.37890625 C4 4 4 4 1 2 C1 4.31 1 6.62 1 9 C0.67 9 0.34 9 0 9 C0 6.03 0 3.06 0 0 Z " fill="#AFA954" transform="translate(336,139)"/>
<path d="M0 0 C1.98 0 3.96 0 6 0 C6.09943798 4.5714698 6.17173349 9.14229975 6.21972656 13.71459961 C6.2397487 15.26744565 6.26697517 16.82021719 6.30175781 18.37280273 C6.3506961 20.61460832 6.37306168 22.85541093 6.390625 25.09765625 C6.41127014 25.78336197 6.43191528 26.46906769 6.45318604 27.17555237 C6.4556828 32.63111599 4.99037526 35.60535605 2 40 C-1.38419253 42.68999919 -3.70597827 43.36805901 -8 43 C-7.8125 41.1875 -7.8125 41.1875 -7 39 C-4.5 37.375 -4.5 37.375 -2 36 C-0.4725361 32.9450722 -0.76008168 29.7236686 -0.68359375 26.3671875 C-0.66281265 25.61535187 -0.64203156 24.86351624 -0.62062073 24.08889771 C-0.55517295 21.68435915 -0.49626262 19.27971033 -0.4375 16.875 C-0.39431023 15.24608229 -0.35069579 13.61717578 -0.30664062 11.98828125 C-0.19949649 7.99230085 -0.09821567 3.99620941 0 0 Z " fill="#9B9946" transform="translate(439,139)"/>
<path d="M0 0 C10.29411765 0 10.29411765 0 15 4 C16.45147903 6.90295805 16.37239025 8.77261779 16 12 C14.18689858 14.92937654 12.12704101 17.43647949 9 19 C6.03 19 3.06 19 0 19 C0 12.73 0 6.46 0 0 Z " fill="#14290B" transform="translate(341,143)"/>
<path d="M0 0 C0.66 0 1.32 0 2 0 C2 1.98 2 3.96 2 6 C2.99 6 3.98 6 5 6 C5 6.66 5 7.32 5 8 C3.35 8.66 1.7 9.32 0 10 C0 9.01 0 8.02 0 7 C-0.66 7 -1.32 7 -2 7 C-2.33 8.65 -2.66 10.3 -3 12 C1.455 11.505 1.455 11.505 6 11 C6 11.99 6 12.98 6 14 C4.68 14 3.36 14 2 14 C2 14.66 2 15.32 2 16 C-0.01822917 15.96744792 -2.03645833 15.93489583 -4.0546875 15.90234375 C-6.08185404 15.87350758 -6.08185404 15.87350758 -8 17 C-9.46321978 17.07203544 -10.92969509 17.08386065 -12.39453125 17.0625 C-13.26787109 17.05476563 -14.14121094 17.04703125 -15.04101562 17.0390625 C-16.87695546 17.01318597 -18.71289301 16.98714642 -20.54882812 16.9609375 C-26.82921307 16.90153997 -26.82921307 16.90153997 -33 18 C-33 17.34 -33 16.68 -33 16 C-26.87111059 11.25011071 -20.81146685 11.40868354 -13.3515625 11.17578125 C-10.16014956 11.38318327 -10.16014956 11.38318327 -9 10 C-8.95936168 8.33382885 -8.957279 6.66611905 -9 5 C-10.32 4.34 -11.64 3.68 -13 3 C-12.31292969 3.11859375 -11.62585938 3.2371875 -10.91796875 3.359375 C-10.01691406 3.48828125 -9.11585937 3.6171875 -8.1875 3.75 C-6.84751953 3.95882812 -6.84751953 3.95882812 -5.48046875 4.171875 C-4.25263672 4.08679688 -4.25263672 4.08679688 -3 4 C-1.27682885 2.07777964 -1.27682885 2.07777964 0 0 Z " fill="#B2AB56" transform="translate(115,205)"/>
<path d="M0 0 C3 1 3 1 4.6875 3.375 C7.80518131 6.91398959 10.53941995 7.58748298 15 9 C13 11 13 11 10 12 C10.0314209 12.82089111 10.0628418 13.64178223 10.09521484 14.48754883 C10.19859188 17.58689701 10.27322335 20.68535599 10.32958984 23.78588867 C10.37395948 25.76606241 10.4502717 27.74543869 10.52734375 29.72460938 C10.67954745 39.74468597 8.70654425 46.78716749 1.92333984 54.30004883 C0 56 0 56 -2 56 C-1.731875 55.484375 -1.46375 54.96875 -1.1875 54.4375 C-0.23602536 52.4844731 0.64422285 50.49681334 1.5 48.5 C3 45 3 45 4.08203125 43.30859375 C5.47852171 39.79656881 5.25102461 36.28295024 5.1875 32.5625 C5.1781543 31.76352295 5.16880859 30.9645459 5.15917969 30.14135742 C5.12198606 27.76025017 5.06454408 25.38050765 5 23 C4.95552734 21.10507813 4.95552734 21.10507813 4.91015625 19.171875 C4.59551974 12.57218239 3.68865258 8.47348447 0 3 C0 2.01 0 1.02 0 0 Z " fill="#B0A655" transform="translate(91,157)"/>
<path d="M0 0 C0.66 0 1.32 0 2 0 C2.3669579 6.48292295 2.3669579 6.48292295 0.625 8.9375 C-1 10 -1 10 -3 10 C-3.08834886 14.41653692 -3.14083987 18.83284148 -3.1875 23.25 C-3.21263672 24.48492187 -3.23777344 25.71984375 -3.26367188 26.9921875 C-3.32100399 34.25425493 -2.69233838 40.61919866 -0.6496582 47.60058594 C0 50 0 50 0 53 C-5.31179888 47.49849402 -8.19687273 39.87130245 -8.375 32.25 C-8.08957346 25.46563064 -7.00189748 18.70913493 -6 12 C-7.98 11.34 -9.96 10.68 -12 10 C-11 8 -11 8 -7.6875 6.6875 C-4.01037935 5.22569384 -2.33843052 3.2045159 0 0 Z " fill="#B4AD5A" transform="translate(42,157)"/>
<path d="M0 0 C-0.639375 0.226875 -1.27875 0.45375 -1.9375 0.6875 C-4.25484291 1.85214653 -4.25484291 1.85214653 -4.8125 4.5625 C-4.874375 5.366875 -4.93625 6.17125 -5 7 C-4.67 7.33 -4.34 7.66 -4 8 C-2.18672045 7.96713991 -0.3740661 7.89788592 1.4375 7.8125 C7.57350625 7.75385239 12.69245427 8.83873272 18 12 C18.66 12.99 19.32 13.98 20 15 C19.22140625 14.835 18.4428125 14.67 17.640625 14.5 C12.98305948 13.86033435 8.44314326 13.93237546 3.75 14 C1.95318447 14.02545064 0.15629957 14.04650364 -1.640625 14.0625 C-2.82446777 14.07990234 -2.82446777 14.07990234 -4.03222656 14.09765625 C-6 14 -6 14 -8 13 C-10.3329866 12.95977609 -12.66706666 12.95679753 -15 13 C-14.34 11.68 -13.68 10.36 -13 9 C-12.34 9 -11.68 9 -11 9 C-11 6.69 -11 4.38 -11 2 C-6.89657963 -0.38570952 -4.61380251 -1.49270081 0 0 Z " fill="#B9B058" transform="translate(34,208)"/>
<path d="M0 0 C2.2601949 2.2601949 3.48809716 4.55617914 5 7.34375 C6.0156448 9.17554302 6.0156448 9.17554302 8 11 C8.125 13.625 8.125 13.625 8 16 C6.35 16 4.7 16 3 16 C3.33 15.01 3.66 14.02 4 13 C4.99 13.33 5.98 13.66 7 14 C6.67 13.34 6.34 12.68 6 12 C4.02 12 2.04 12 0 12 C0.33 14.64 0.66 17.28 1 20 C0.01 20.66 -0.98 21.32 -2 22 C-2.58350505 24.45709375 -2.58350505 24.45709375 -2 27 C-0.02643171 28.66658107 -0.02643171 28.66658107 2 30 C1.154375 30.02578125 0.30875 30.0515625 -0.5625 30.078125 C-7.76057833 30.43802892 -12.82365278 31.24574973 -19 35 C-19.66 34.34 -20.32 33.68 -21 33 C-20.41992188 32.64808594 -19.83984375 32.29617187 -19.2421875 31.93359375 C-11.29851845 26.91309005 -5.15252809 21.04836188 -2 12 C-1.13857795 8.02081749 -0.51149318 4.03810408 0 0 Z " fill="#1D2F0E" transform="translate(102,186)"/>
<path d="M0 0 C0.33 0 0.66 0 1 0 C1 7.9861383 -2.47743699 12.43202117 -8 18 C-14.06453449 23.10237277 -21.95278339 29.09896503 -30.1875 28.9375 C-33.30721347 27.89759551 -36.11748716 26.57851894 -39 25 C-39 24.34 -39 23.68 -39 23 C-40.62101788 21.58738471 -40.62101788 21.58738471 -42.6875 20.1875 C-46.14285025 17.6895825 -49.08173261 15.1006591 -52 12 C-51.67 11.34 -51.34 10.68 -51 10 C-50.61070313 10.43570313 -50.22140625 10.87140625 -49.8203125 11.3203125 C-45.15985416 16.28144557 -37.37777734 23.73342914 -30.1875 24.08984375 C-20.88703964 23.44213312 -13.79628026 18.47635318 -7.53515625 11.80078125 C-4.41854601 8.14491021 -1.53590342 4.60771026 0 0 Z " fill="#424B21" transform="translate(96,193)"/>
<path d="M0 0 C0.33 1.65 0.66 3.3 1 5 C0.34 5 -0.32 5 -1 5 C-1 4.34 -1 3.68 -1 3 C-2.32 3 -3.64 3 -5 3 C-4.67 3.99 -4.34 4.98 -4 6 C-2.35 6.33 -0.7 6.66 1 7 C0.67 7.66 0.34 8.32 0 9 C4.97509006 11.48754503 12.78350821 10.50953622 18.125 9.3125 C21.20075726 8.25484948 21.20075726 8.25484948 22.4375 5.375 C22.623125 4.59125 22.80875 3.8075 23 3 C23.66 3 24.32 3 25 3 C24.84876423 5.64662605 24.49998757 7.44278494 22.703125 9.4453125 C18.6 13 18.6 13 15 13 C15 13.66 15 14.32 15 15 C-0.06005222 15.75195822 -0.06005222 15.75195822 -6 11 C-8.301642 8.698358 -8.91497413 7.59518108 -9.375 4.375 C-9.25125 3.59125 -9.1275 2.8075 -9 2 C-5.5647952 -0.29013653 -4.014669 -0.17842973 0 0 Z " fill="#102608" transform="translate(106,147)"/>
<path d="M0 0 C5.5952381 0.5952381 5.5952381 0.5952381 8 3 C7.85987495 6.78337622 7.56612537 9.22419857 5.3125 12.3125 C1.31264846 15.23131059 -2.08528225 16 -7 16 C-7.33 16.66 -7.66 17.32 -8 18 C-8 17.34 -8 16.68 -8 16 C-9.155 16.12375 -10.31 16.2475 -11.5 16.375 C-16.19950793 16.38337702 -18.87553599 14.59936272 -22.43359375 11.66796875 C-24.42055065 9.55218173 -25 7.89805298 -25 5 C-23.53515625 6.26953125 -22.0703125 7.5390625 -20.60546875 8.80859375 C-17.42960058 11.16538157 -14.37365592 11.16164413 -10.5625 11.1875 C-9.14130859 11.20876953 -9.14130859 11.20876953 -7.69140625 11.23046875 C-3.63903151 10.88345843 -1.35040026 9.23360017 2 7 C2.99 7 3.98 7 5 7 C5 6.01 5 5.02 5 4 C3.68 4 2.36 4 1 4 C0.67 4.99 0.34 5.98 0 7 C-1 6 -1 6 -1.125 3.5 C-1 1 -1 1 0 0 Z " fill="#122708" transform="translate(30,146)"/>
<path d="M0 0 C0.66 0.33 1.32 0.66 2 1 C2.62669199 3.16467461 3.15427374 5.35864524 3.625 7.5625 C3.88539063 8.76003906 4.14578125 9.95757812 4.4140625 11.19140625 C4.60742188 12.11824219 4.80078125 13.04507813 5 14 C2.03 14 -0.94 14 -4 14 C-4 14.66 -4 15.32 -4 16 C-0.7 16 2.6 16 6 16 C6.33 16.66 6.66 17.32 7 18 C3.04 18 -0.92 18 -5 18 C-5.99 21.96 -6.98 25.92 -8 30 C-8.99 30 -9.98 30 -11 30 C-10.4476391 23.12695233 -9.01284333 17.00059271 -6.9375 10.4375 C-6.65583984 9.52419922 -6.37417969 8.61089844 -6.08398438 7.66992188 C-5.39648178 5.44427788 -4.70174718 3.22118518 -4 1 C-3.31292445 3.49064888 -3 5.37886292 -3 8 C-2.01 5.36 -1.02 2.72 0 0 Z " fill="#939342" transform="translate(396,146)"/>
<path d="M0 0 C0.93423645 3.01031744 1.04449911 3.86650268 0 7 C0.66 7 1.32 7 2 7 C2.33 5.35 2.66 3.7 3 2 C3.66 2 4.32 2 5 2 C5.50757862 3.41396902 6.00574925 4.83131729 6.5 6.25 C6.7784375 7.03890625 7.056875 7.8278125 7.34375 8.640625 C8 11 8 11 8 15 C5.03 15 2.06 15 -1 15 C-1 15.66 -1 16.32 -1 17 C2.3 17 5.6 17 9 17 C9.33 17.66 9.66 18.32 10 19 C6.04 19 2.08 19 -2 19 C-2.99 22.96 -3.98 26.92 -5 31 C-5.99 31 -6.98 31 -8 31 C-7.3157196 24.28248676 -5.37116568 18.014434 -3.4375 11.5625 C-3.10814453 10.44939453 -2.77878906 9.33628906 -2.43945312 8.18945312 C-1.6306592 5.45830842 -0.81739587 2.72858014 0 0 Z " fill="#959444" transform="translate(298,145)"/>
<path d="M0 0 C0.43828125 0.3609375 0.8765625 0.721875 1.328125 1.09375 C6.71020628 5.03185826 10.77003773 5.44957534 17.36328125 5.078125 C20 5 20 5 23 6 C22.67 6.66 22.34 7.32 22 8 C21.34 7.67 20.68 7.34 20 7 C20 7.66 20 8.32 20 9 C19.071875 9.45375 18.14375 9.9075 17.1875 10.375 C13.96078611 11.9421633 13.96078611 11.9421633 11 14 C10.26393501 17.56769552 10.26393501 17.56769552 10 21 C10.62648438 21.12117188 11.25296875 21.24234375 11.8984375 21.3671875 C12.71570313 21.53476563 13.53296875 21.70234375 14.375 21.875 C15.18710938 22.03742188 15.99921875 22.19984375 16.8359375 22.3671875 C19 23 19 23 21 25 C20.01 25.33 19.02 25.66 18 26 C17.01 25.34 16.02 24.68 15 24 C12.67612053 23.60612212 10.34206251 23.26513915 8 23 C8 23.66 8 24.32 8 25 C7.34 25 6.68 25 6 25 C6 20.71 6 16.42 6 12 C7.32 11.34 8.64 10.68 10 10 C9.44570312 9.66226563 8.89140625 9.32453125 8.3203125 8.9765625 C7.59585938 8.53054687 6.87140625 8.08453125 6.125 7.625 C5.40570313 7.18414062 4.68640625 6.74328125 3.9453125 6.2890625 C2 5 2 5 0 3 C0 2.01 0 1.02 0 0 Z " fill="#1D2F0C" transform="translate(94,157)"/>
<path d="M0 0 C8.15590464 0.40779523 13.73261657 6.64215562 19.5546875 11.80078125 C22.62925942 14.35184498 25.11247176 14.08451148 29 14 C26.525 13.505 26.525 13.505 24 13 C24 12.67 24 12.34 24 12 C26.31 12 28.62 12 31 12 C31 13.65 31 15.3 31 17 C26.75726864 18.35767404 22.43984306 18.93799582 18.19140625 17.3046875 C11.12288524 13.33691063 5.44258786 6.91427881 0 1 C0 0.67 0 0.34 0 0 Z " fill="#848832" transform="translate(350,167)"/>
<path d="M0 0 C1.32 1.32 2.64 2.64 4 4 C4.66 3.67 5.32 3.34 6 3 C7.67848968 5.24198265 9.34267614 7.49245614 11 9.75 C11.71542969 10.70132813 11.71542969 10.70132813 12.4453125 11.671875 C13.12207031 12.6 13.12207031 12.6 13.8125 13.546875 C14.23144531 14.11245117 14.65039062 14.67802734 15.08203125 15.26074219 C16 17 16 17 16 21 C13.359375 21.4609375 13.359375 21.4609375 10 21 C7.65416559 18.84275228 5.99667266 16.27645877 4.25 13.625 C3.29788225 12.24149378 2.34479825 10.85865189 1.390625 9.4765625 C0.97844727 8.85861816 0.56626953 8.24067383 0.14160156 7.60400391 C-1.04132282 5.84795943 -1.04132282 5.84795943 -3 4 C-2.01 2.68 -1.02 1.36 0 0 Z " fill="#9A9943" transform="translate(254,155)"/>
<path d="M0 0 C4.09168814 -0.71159794 6.01532647 -0.64689884 9.55078125 1.67578125 C12.08591609 3.73017941 14.54581875 5.85002213 17 8 C20.34853877 10.74368167 22.66138829 11.50697594 27 12 C27 12.66 27 13.32 27 14 C19.98488121 15.45140389 19.98488121 15.45140389 16 13.625 C12.58028048 10.63274542 9.66327799 7.39392025 6.734375 3.92578125 C5.13694001 1.9162452 5.13694001 1.9162452 3 1 C3.66 3.64 4.32 6.28 5 9 C4.34 9 3.68 9 3 9 C2.67 9.66 2.34 10.32 2 11 C1.67 10.01 1.34 9.02 1 8 C0.67 9.98 0.34 11.96 0 14 C-0.33 14 -0.66 14 -1 14 C-1.02694851 12.04174127 -1.04637218 10.08337774 -1.0625 8.125 C-1.07410156 7.03445312 -1.08570312 5.94390625 -1.09765625 4.8203125 C-1 2 -1 2 0 0 Z " fill="#414C1C" transform="translate(102,180)"/>
<path d="M0 0 C5.61 0 11.22 0 17 0 C17 0.66 17 1.32 17 2 C15.02 2 13.04 2 11 2 C11 9.26 11 16.52 11 24 C9.68 24 8.36 24 7 24 C7 16.74 7 9.48 7 2 C4.69 2 2.38 2 0 2 C0 1.34 0 0.68 0 0 Z " fill="#BEC26A" transform="translate(59,171)"/>
<path d="M0 0 C3.18150515 2.98868666 5.83240502 6.05430543 8.4375 9.5625 C11.30003214 13.32898965 13.88882837 15.69373299 18 18 C17.34 18.66 16.68 19.32 16 20 C14.906875 19.525625 13.81375 19.05125 12.6875 18.5625 C7.56523487 16.61291255 2.43438112 16.28970046 -3 16 C-1.68 15.34 -0.36 14.68 1 14 C1.2502157 11.08365871 1.2502157 11.08365871 1 8 C0.01 7.34 -0.98 6.68 -2 6 C-1.34 4.02 -0.68 2.04 0 0 Z " fill="#13280B" transform="translate(34,200)"/>
<path d="M0 0 C1.64826111 2.96687001 2.44271087 5.65626525 3 9 C2.01 8.67 1.02 8.34 0 8 C-0.66 9.32 -1.32 10.64 -2 12 C-0.68 12.66 0.64 13.32 2 14 C2 17 2 20 2 23 C-0.875 23.125 -0.875 23.125 -4 23 C-4.66 22.34 -5.32 21.68 -6 21 C-5.8125 18.5 -5.8125 18.5 -5 16 C-4.01 15.34 -3.02 14.68 -2 14 C-4.64 14.33 -7.28 14.66 -10 15 C-10 13.66666667 -10 12.33333333 -10 11 C-7.69 10.34 -5.38 9.68 -3 9 C-2.67 7.68 -2.34 6.36 -2 5 C-3.65 5.33 -5.3 5.66 -7 6 C-7 5.01 -7 4.02 -7 3 C-5.33388095 2.957279 -3.66617115 2.95936168 -2 3 C-1.67 3.33 -1.34 3.66 -1 4 C-0.67 2.68 -0.34 1.36 0 0 Z " fill="#555C1F" transform="translate(34,194)"/>
<path d="M0 0 C3 1 3 1 4 3 C6.8159849 3.46898963 6.8159849 3.46898963 10.0625 3.625 C11.71958984 3.73714844 11.71958984 3.73714844 13.41015625 3.8515625 C14.26480469 3.90054688 15.11945313 3.94953125 16 4 C16 5.32 16 6.64 16 8 C6.1 8 -3.8 8 -14 8 C-13 5 -13 5 -12 4 C-10.14712498 3.92773498 -8.29166122 3.9161878 -6.4375 3.9375 C-5.42558594 3.94652344 -4.41367187 3.95554688 -3.37109375 3.96484375 C-2.19740234 3.98224609 -2.19740234 3.98224609 -1 4 C-0.67 2.68 -0.34 1.36 0 0 Z " fill="#BFAE4F" transform="translate(67,139)"/>
<path d="M0 0 C0.66 0 1.32 0 2 0 C1.526248 6.86940393 0.00586573 10.99413427 -5 16 C-4.67958603 18.60280568 -4.67958603 18.60280568 -4 21 C-3.01 21 -2.02 21 -1 21 C-0.34 20.01 0.32 19.02 1 18 C0.625 20.4375 0.625 20.4375 0 23 C-2.78863007 24.39431504 -4.92078868 24.25660094 -8 24 C-10.32536063 20.51195905 -10.33457898 19.09859246 -10 15 C-9.1875 12.6875 -9.1875 12.6875 -8 11 C-7.01 10.67 -6.02 10.34 -5 10 C-2.88514786 6.64111719 -1.2516984 3.75509521 0 0 Z " fill="#84842C" transform="translate(31,181)"/>
<path d="M0 0 C0.66 0 1.32 0 2 0 C1.42757193 4.00699649 0.58598859 6.8483264 -2 10 C-4.9060298 11.59431727 -7.9126762 12.80490692 -11 14 C-11.99 14.495 -11.99 14.495 -13 15 C-14.87379605 15.07033769 -16.75001102 15.0843022 -18.625 15.0625 C-19.62789063 15.05347656 -20.63078125 15.04445312 -21.6640625 15.03515625 C-22.43492188 15.02355469 -23.20578125 15.01195312 -24 15 C-22.68 14.67 -21.36 14.34 -20 14 C-20 12.35 -20 10.7 -20 9 C-18.845 9.061875 -17.69 9.12375 -16.5 9.1875 C-11.92363148 9.16315761 -7.94824253 8.39526713 -4 6 C-1.63297941 2.95202627 -1.63297941 2.95202627 0 0 Z " fill="#D6C76E" transform="translate(134,155)"/>
<path d="M0 0 C8.58 0 17.16 0 26 0 C26 1.32 26 2.64 26 4 C22.7 4 19.4 4 16 4 C15.67 4.99 15.34 5.98 15 7 C15 5.68 15 4.36 15 3 C14.01 3 13.02 3 12 3 C12 5.64 12 8.28 12 11 C11.67 11 11.34 11 11 11 C11 8.69 11 6.38 11 4 C7.37 4 3.74 4 0 4 C0 2.68 0 1.36 0 0 Z " fill="#ABA555" transform="translate(156,139)"/>
<path d="M0 0 C2 0.25 2 0.25 4 1 C5 4 5 4 4.0625 6.1875 C3.711875 6.785625 3.36125 7.38375 3 8 C3 6.02 3 4.04 3 2 C2.01 2 1.02 2 0 2 C0.04640625 2.65226562 0.0928125 3.30453125 0.140625 3.9765625 C0.39266565 10.07954686 -0.03942021 13.2968115 -4 18 C-6.31 17.67 -8.62 17.34 -11 17 C-11.33 16.01 -11.66 15.02 -12 14 C-10.68 14 -9.36 14 -8 14 C-8.33 10.7 -8.66 7.4 -9 4 C-8.01 4 -7.02 4 -6 4 C-5.67 5.65 -5.34 7.3 -5 9 C-4.01 9 -3.02 9 -2 9 C-1.855625 7.700625 -1.71125 6.40125 -1.5625 5.0625 C-1.125 1.125 -1.125 1.125 0 0 Z " fill="#7D7A21" transform="translate(66,122)"/>
<path d="M0 0 C0.33 0.99 0.66 1.98 1 3 C-5.73341932 8.95046359 -10.37591011 10.30838701 -19.3125 10.125 C-20.14845703 10.11597656 -20.98441406 10.10695312 -21.84570312 10.09765625 C-23.89725969 10.07420989 -25.94866777 10.03834266 -28 10 C-22.84611975 7.32265961 -17.68157744 6.10934624 -12 5.125 C-7.29764047 4.23342113 -3.99443917 2.60506902 0 0 Z " fill="#E0CF74" transform="translate(136,165)"/>
<path d="M0 0 C-0.33 0.66 -0.66 1.32 -1 2 C1.31 2.99 3.62 3.98 6 5 C5.67 6.32 5.34 7.64 5 9 C5 8.01 5 7.02 5 6 C-8.43614992 2.47576395 -24.56385008 2.47576395 -38 6 C-38.33 8.31 -38.66 10.62 -39 13 C-39.95412881 10.42385222 -40.01981848 9.08323761 -39.375 6.375 C-37.543454 3.21142054 -36.5195463 3.01905231 -33 2 C-29.54619141 1.64381435 -26.09457722 1.53628657 -22.625 1.4375 C-15.10510663 1.18999651 -7.47641669 -0.22655808 0 0 Z " fill="#6C6F24" transform="translate(84,150)"/>
<path d="M0 0 C7.59 0 15.18 0 23 0 C23 1.32 23 2.64 23 4 C17.06 4 11.12 4 5 4 C5 3.34 5 2.68 5 2 C4.01 2.33 3.02 2.66 2 3 C1.67 5.64 1.34 8.28 1 11 C0.67 11 0.34 11 0 11 C0 7.37 0 3.74 0 0 Z " fill="#B1AA58" transform="translate(202,139)"/>
<path d="M0 0 C0.82757812 0.37705078 0.82757812 0.37705078 1.671875 0.76171875 C0.00520833 2.42838542 -1.66145833 4.09505208 -3.328125 5.76171875 C-4.5346875 7.03015625 -4.5346875 7.03015625 -5.765625 8.32421875 C-9.51787945 11.8934364 -12.41132222 14.61973336 -17.703125 15.01171875 C-18.569375 14.92921875 -19.435625 14.84671875 -20.328125 14.76171875 C-20.658125 14.10171875 -20.988125 13.44171875 -21.328125 12.76171875 C-20.235 12.28734375 -19.141875 11.81296875 -18.015625 11.32421875 C-12.95161929 8.85088976 -9.01243623 5.23804984 -4.84375 1.4921875 C-2.328125 -0.23828125 -2.328125 -0.23828125 0 0 Z " fill="#8C8932" transform="translate(28.328125,180.23828125)"/>
<path d="M0 0 C1.32 0 2.64 0 4 0 C3.67 3.3 3.34 6.6 3 10 C3.99 10 4.98 10 6 10 C5.67 10.99 5.34 11.98 5 13 C2.69 13.33 0.38 13.66 -2 14 C-5 9.375 -5 9.375 -5 6 C-3.68 5.67 -2.36 5.34 -1 5 C-0.67 3.35 -0.34 1.7 0 0 Z " fill="#8B831B" transform="translate(75,126)"/>
<path d="M0 0 C0.66 0.33 1.32 0.66 2 1 C2.72281572 11.0391072 2.65318323 17.90610313 -4 26 C-5.57421875 27.765625 -5.57421875 27.765625 -7 29 C-7.66 29 -8.32 29 -9 29 C-8.731875 28.484375 -8.46375 27.96875 -8.1875 27.4375 C-6.97000242 24.93842602 -5.86168737 22.40585344 -4.79296875 19.83984375 C-4.04952421 18.11490593 -3.21501432 16.43002863 -2.375 14.75 C-0.58213874 9.86037839 -0.27118275 5.1711746 0 0 Z " fill="#E4D47D" transform="translate(98,184)"/>
<path d="M0 0 C0.495 0.7425 0.99 1.485 1.5 2.25 C4.62295503 5.68525053 7.82581222 7.1330293 12 9 C14.00332033 9.98511899 15.98007488 10.98907332 17.9375 12.0625 C20.26847774 13.12203534 22.48156522 13.58026087 25 14 C25 14.33 25 14.66 25 15 C16.78930203 15.55249556 9.81046866 15.11199312 3.33203125 9.57421875 C1.09865308 7.15316175 0.04492036 5.41326734 -0.3125 2.125 C-0.209375 1.42375 -0.10625 0.7225 0 0 Z " fill="#CFC168" transform="translate(0,155)"/>
<path d="M0 0 C2.0078125 0.23046875 2.0078125 0.23046875 5.0078125 2.23046875 C5.0078125 2.89046875 5.0078125 3.55046875 5.0078125 4.23046875 C6.3278125 4.56046875 7.6478125 4.89046875 9.0078125 5.23046875 C8.0178125 5.89046875 7.0278125 6.55046875 6.0078125 7.23046875 C5.6778125 8.22046875 5.3478125 9.21046875 5.0078125 10.23046875 C2.6978125 10.56046875 0.3878125 10.89046875 -1.9921875 11.23046875 C-2.3221875 9.91046875 -2.6521875 8.59046875 -2.9921875 7.23046875 C-1.6721875 7.23046875 -0.3521875 7.23046875 1.0078125 7.23046875 C1.0078125 7.89046875 1.0078125 8.55046875 1.0078125 9.23046875 C1.6678125 9.23046875 2.3278125 9.23046875 3.0078125 9.23046875 C2.3478125 7.58046875 1.6878125 5.93046875 1.0078125 4.23046875 C-4.07522436 4.11726019 -4.07522436 4.11726019 -8.9921875 5.23046875 C-6.54333959 0.1695164 -5.81255099 0.1179669 0 0 Z " fill="#9F9A4D" transform="translate(103.9921875,142.76953125)"/>
<path d="M0 0 C0.66 0 1.32 0 2 0 C1.77581061 3.92331434 1.04047908 4.96128088 -1.875 7.75 C-7.06387147 11.48598746 -11.79074566 11.57760505 -18 11 C-21.625 9.5 -21.625 9.5 -24 8 C-20.78802708 6.92934236 -18.61448677 6.96429797 -15.25 7.0625 C-10.36339002 7.08616397 -6.46831025 7.03988077 -2 5 C-0.48207356 2.50358872 -0.48207356 2.50358872 0 0 Z " fill="#93914D" transform="translate(129,150)"/>
<path d="M0 0 C0.99 0.33 1.98 0.66 3 1 C4.55421729 1.08106686 6.11167027 1.10756898 7.66796875 1.09765625 C8.56064453 1.09443359 9.45332031 1.09121094 10.37304688 1.08789062 C11.30181641 1.07951172 12.23058594 1.07113281 13.1875 1.0625 C14.59805664 1.05573242 14.59805664 1.05573242 16.03710938 1.04882812 C18.35813712 1.03704626 20.67903644 1.02059558 23 1 C19.26564827 4.89439537 15.9406779 6.11287032 10.5625 6.375 C5.88876597 6.28121269 3.50075091 5.05193669 0 2 C0 1.34 0 0.68 0 0 Z " fill="#C0B358" transform="translate(3,177)"/>
<path d="M0 0 C0.65226563 0.26554688 1.30453125 0.53109375 1.9765625 0.8046875 C6.61267817 2.67827997 11.22830854 4.49315006 16 6 C16 6.33 16 6.66 16 7 C19.96 7.33 23.92 7.66 28 8 C28 8.33 28 8.66 28 9 C24.97861433 9.08149592 21.95946095 9.14073421 18.9375 9.1875 C18.08994141 9.21263672 17.24238281 9.23777344 16.36914062 9.26367188 C10.7723275 9.32849983 6.95126053 8.65912952 2 6 C1.34 5.34 0.68 4.68 0 4 C0 2.68 0 1.36 0 0 Z " fill="#D1C267" transform="translate(0,166)"/>
<path d="M0 0 C0.33 1.32 0.66 2.64 1 4 C-0.07869393 4.96355244 -1.16318743 5.92061417 -2.25 6.875 C-2.85328125 7.40867188 -3.4565625 7.94234375 -4.078125 8.4921875 C-6 10 -6 10 -8.109375 11.0078125 C-10.33470775 11.98315111 -10.33470775 11.98315111 -12 15 C-14.64 13.35 -17.28 11.7 -20 10 C-19.34 9.67 -18.68 9.34 -18 9 C-17.67 8.34 -17.34 7.68 -17 7 C-16.360625 7.2475 -15.72125 7.495 -15.0625 7.75 C-10.43938448 8.12739719 -6.94435221 6.31797192 -3 4 C-0.9541395 1.95450873 -0.9541395 1.95450873 0 0 Z " fill="#162A0B" transform="translate(41,155)"/>
<path d="M0 0 C0.33 0 0.66 0 1 0 C1 4.62 1 9.24 1 14 C-1.31 13.34 -3.62 12.68 -6 12 C-6 12.99 -6 13.98 -6 15 C-4.68 14.67 -3.36 14.34 -2 14 C-2.33 15.32 -2.66 16.64 -3 18 C-4.32 17.67 -5.64 17.34 -7 17 C-7.8125 14.875 -7.8125 14.875 -8 12 C-5.75 9.0625 -5.75 9.0625 -4.34765625 7.55859375 C-2.38381654 5.28737043 -1.2300963 2.71916025 0 0 Z " fill="#15290B" transform="translate(33,185)"/>
<path d="M0 0 C1.46484375 1.26953125 2.9296875 2.5390625 4.39453125 3.80859375 C8.26130407 6.67809669 12.61555908 6.1144085 17.1875 6.0625 C18.31188477 6.05573242 18.31188477 6.05573242 19.45898438 6.04882812 C21.30602383 6.03706354 23.15302213 6.01912865 25 6 C22.14440215 9.28393753 19.88336869 9.7791695 15.66796875 10.2734375 C10.15625994 10.49911377 6.60049068 10.00040314 2.2734375 6.4453125 C0.49176984 4.42317436 0.07606851 2.66239772 0 0 Z " fill="#B5AC5D" transform="translate(5,151)"/>
<path d="M0 0 C0.66 0.33 1.32 0.66 2 1 C2.62669199 3.16467461 3.15427374 5.35864524 3.625 7.5625 C3.88539063 8.76003906 4.14578125 9.95757812 4.4140625 11.19140625 C4.60742188 12.11824219 4.80078125 13.04507813 5 14 C2.03 14 -0.94 14 -4 14 C-3.52372025 12.04096255 -3.04388577 10.08278903 -2.5625 8.125 C-2.29566406 7.03445312 -2.02882813 5.94390625 -1.75390625 4.8203125 C-1 2 -1 2 0 0 Z " fill="#0A2107" transform="translate(396,146)"/>
<path d="M0 0 C0 0.66 0 1.32 0 2 C-0.66 2 -1.32 2 -2 2 C-2.0825 2.886875 -2.165 3.77375 -2.25 4.6875 C-3.104142 8.4599605 -4.28147562 10.28147562 -7 13 C-7.99 13 -8.98 13 -10 13 C-10.68359375 11.234375 -10.68359375 11.234375 -11 9 C-9.78515625 7.078125 -9.78515625 7.078125 -8.0625 5.25 C-7.49660156 4.63640625 -6.93070313 4.0228125 -6.34765625 3.390625 C-5.90292969 2.93171875 -5.45820313 2.4728125 -5 2 C-6.98 2.66 -8.96 3.32 -11 4 C-11.66 3.34 -12.32 2.68 -13 2 C-8.50343896 -0.24828052 -4.92127034 -0.16682272 0 0 Z " fill="#1B2E09" transform="translate(33,179)"/>
<path d="M0 0 C0.66 0 1.32 0 2 0 C2.50757862 1.41396902 3.00574925 2.83131729 3.5 4.25 C3.7784375 5.03890625 4.056875 5.8278125 4.34375 6.640625 C5 9 5 9 5 13 C2.36 13 -0.28 13 -3 13 C-2.343621 8.51474352 -1.29925791 4.33085971 0 0 Z " fill="#203310" transform="translate(301,147)"/>
<path d="M0 0 C0.639375 0.7425 1.27875 1.485 1.9375 2.25 C8.13619318 8.34509385 15.92188971 9.55011134 24.27734375 10.5078125 C27 11 27 11 29 13 C25.99827715 12.74279592 22.99939603 12.4696654 20 12.1875 C18.74123047 12.08211914 18.74123047 12.08211914 17.45703125 11.97460938 C11.24470131 11.37263942 4.59624297 10.59624297 0 6 C-0.125 2.875 -0.125 2.875 0 0 Z " fill="#1F320F" transform="translate(0,160)"/>
<path d="M0 0 C1.02802734 0.00322266 2.05605469 0.00644531 3.11523438 0.00976562 C4.72301758 0.02233398 4.72301758 0.02233398 6.36328125 0.03515625 C7.44673828 0.03966797 8.53019531 0.04417969 9.64648438 0.04882812 C12.3229721 0.06061882 14.99934902 0.07707562 17.67578125 0.09765625 C18.00578125 0.75765625 18.33578125 1.41765625 18.67578125 2.09765625 C13.38897587 2.97179735 8.28074666 3.28048351 2.92578125 3.28515625 C2.17167969 3.29740234 1.41757812 3.30964844 0.640625 3.32226562 C-3.21595557 3.33254071 -5.04125259 3.28630036 -8.32421875 1.09765625 C-5.26502487 0.07792496 -3.2000385 -0.01767977 0 0 Z " fill="#998718" transform="translate(60.32421875,148.90234375)"/>
<path d="M0 0 C3 1 3 1 4.6875 3.375 C7.80518131 6.91398959 10.53941995 7.58748298 15 9 C12.4345406 11.5654594 10.52313332 11.54046087 7 12 C7 14.64 7 17.28 7 20 C6.67 20 6.34 20 6 20 C6 16.7 6 13.4 6 10 C5.34 10 4.68 10 4 10 C0 3.375 0 3.375 0 0 Z " fill="#CFBF5E" transform="translate(91,157)"/>
<path d="M0 0 C2.05078125 0.03255208 4.1015625 0.06510417 6.15234375 0.09765625 C6.15234375 1.08765625 6.15234375 2.07765625 6.15234375 3.09765625 C5.36859375 2.89140625 4.58484375 2.68515625 3.77734375 2.47265625 C2.91109375 2.34890625 2.04484375 2.22515625 1.15234375 2.09765625 C-1.13494359 3.93649506 -1.13494359 3.93649506 -0.97265625 6.72265625 C-0.91078125 7.89828125 -0.91078125 7.89828125 -0.84765625 9.09765625 C-0.51765625 8.43765625 -0.18765625 7.77765625 0.15234375 7.09765625 C1.47234375 7.09765625 2.79234375 7.09765625 4.15234375 7.09765625 C4.15234375 8.08765625 4.15234375 9.07765625 4.15234375 10.09765625 C0.77734375 10.72265625 0.77734375 10.72265625 -2.84765625 11.09765625 C-3.50765625 10.43765625 -4.16765625 9.77765625 -4.84765625 9.09765625 C-4.84765625 8.10765625 -4.84765625 7.11765625 -4.84765625 6.09765625 C-5.83765625 5.76765625 -6.82765625 5.43765625 -7.84765625 5.09765625 C-7.04328125 4.45828125 -6.23890625 3.81890625 -5.41015625 3.16015625 C-1.58819383 0.08394259 -1.58819383 0.08394259 0 0 Z " fill="#B6AC57" transform="translate(30.84765625,142.90234375)"/>
<path d="M0 0 C3.46167537 0.5884084 5.16164369 1.7887308 7.6875 4.1875 C16.20857065 11.93698185 16.20857065 11.93698185 27 15 C26.67 15.66 26.34 16.32 26 17 C20.61430591 17.51292325 18.22455155 16.29515021 14 13 C11.9490747 11.22010427 9.91844083 9.42037596 7.8984375 7.60546875 C5.92085554 5.84409389 5.92085554 5.84409389 3.0625 4.25 C1 3 1 3 0 0 Z " fill="#B8B058" transform="translate(353,165)"/>
<path d="M0 0 C1.32 0.66 2.64 1.32 4 2 C4 3.32 4 4.64 4 6 C3.34 6 2.68 6 2 6 C2.33 7.65 2.66 9.3 3 11 C2.34 11 1.68 11 1 11 C0.67 11.99 0.34 12.98 0 14 C-1.65 14 -3.3 14 -5 14 C-4.67 13.01 -4.34 12.02 -4 11 C-2.68 11 -1.36 11 0 11 C-0.7425 10.3503125 -0.7425 10.3503125 -1.5 9.6875 C-3 8 -3 8 -3 5 C-2.01 5 -1.02 5 0 5 C0 3.35 0 1.7 0 0 Z " fill="#9C9852" transform="translate(18,205)"/>
<path d="M0 0 C-2.47447231 2.71013633 -4.33587433 3.83795031 -8.0859375 4.203125 C-12.93607575 4.30244524 -16.00832592 4.09032832 -20 1 C-17.00537986 -0.49731007 -13.85351141 -0.41447434 -10.5625 -0.625 C-9.88123047 -0.6765625 -9.19996094 -0.728125 -8.49804688 -0.78125 C-5.31443496 -0.99328292 -3.05859194 -1.01953065 0 0 Z " fill="#BCB159" transform="translate(132,179)"/>
<path d="M0 0 C0.33 0.99 0.66 1.98 1 3 C-0.02480469 2.98839844 -1.04960938 2.97679687 -2.10546875 2.96484375 C-3.466144 2.95545978 -4.82682124 2.94636023 -6.1875 2.9375 C-6.86103516 2.92912109 -7.53457031 2.92074219 -8.22851562 2.91210938 C-11.95434131 2.89393462 -15.3788042 3.10700608 -19 4 C-19 3.34 -19 2.68 -19 2 C-12.51228393 -3.01323515 -7.70910371 -1.87347676 0 0 Z " fill="#82822B" transform="translate(101,219)"/>
<path d="M0 0 C0.33 0.99 0.66 1.98 1 3 C2.98 3 4.96 3 7 3 C7.125 5.375 7.125 5.375 7 8 C5 10 5 10 1.7421875 10.1953125 C0.46601562 10.17210937 -0.81015625 10.14890625 -2.125 10.125 C-4.04699219 10.09792969 -4.04699219 10.09792969 -6.0078125 10.0703125 C-7.48894531 10.03550781 -7.48894531 10.03550781 -9 10 C-9 9.67 -9 9.34 -9 9 C-5.7 8.67 -2.4 8.34 1 8 C0.34 7.34 -0.32 6.68 -1 6 C-1.1875 3.4375 -1.1875 3.4375 -1 1 C-0.67 0.67 -0.34 0.34 0 0 Z " fill="#585E22" transform="translate(100,207)"/>
<path d="M0 0 C1.64826111 2.96687001 2.44271087 5.65626525 3 9 C2.01 8.67 1.02 8.34 0 8 C-0.66 9.32 -1.32 10.64 -2 12 C-2.99 12 -3.98 12 -5 12 C-5 12.66 -5 13.32 -5 14 C-6.65 14.33 -8.3 14.66 -10 15 C-10 13.66666667 -10 12.33333333 -10 11 C-7.69 10.34 -5.38 9.68 -3 9 C-2.67 7.68 -2.34 6.36 -2 5 C-3.65 5.33 -5.3 5.66 -7 6 C-7 5.01 -7 4.02 -7 3 C-5.33388095 2.957279 -3.66617115 2.95936168 -2 3 C-1.67 3.33 -1.34 3.66 -1 4 C-0.67 2.68 -0.34 1.36 0 0 Z " fill="#626825" transform="translate(34,194)"/>
<path d="M0 0 C0.515625 0.268125 1.03125 0.53625 1.5625 0.8125 C6.67370845 3.30257591 11.31923743 5.30722408 17 6 C17 6.66 17 7.32 17 8 C9.89115044 9.47079646 9.89115044 9.47079646 5.6875 7.25 C1.26845638 3.55033557 1.26845638 3.55033557 0 2 C0 1.34 0 0.68 0 0 Z " fill="#A09B51" transform="translate(112,186)"/>
<path d="M0 0 C0.99 0.495 0.99 0.495 2 1 C2.23828125 2.8984375 2.23828125 2.8984375 2.3125 5.375 C2.71312336 10.8266198 4.55901094 14.92691631 7.0390625 19.75 C7.35617188 20.4925 7.67328125 21.235 8 22 C7.67 22.66 7.34 23.32 7 24 C0.13823331 16.19178273 -0.44727215 10.08847174 0 0 Z " fill="#E4D88F" transform="translate(35,186)"/>
<path d="M0 0 C0.66 0.33 1.32 0.66 2 1 C1 4 1 4 -0.94921875 5.1171875 C-5.19702838 6.34638721 -9.4186762 6.72526361 -13.8125 7.125 C-14.69615234 7.21136719 -15.57980469 7.29773438 -16.49023438 7.38671875 C-18.65952058 7.59778444 -20.82968458 7.79979426 -23 8 C-22.67 7.34 -22.34 6.68 -22 6 C-20.0134625 5.62752422 -18.00827807 5.3527908 -16 5.125 C-10.67634881 4.40463796 -6.45105185 3.1978621 -1.70703125 0.70703125 C-1.14371094 0.47371094 -0.58039063 0.24039063 0 0 Z " fill="#2C3C15" transform="translate(130,165)"/>
<path d="M0 0 C2.75105422 -0.10812003 5.49785087 -0.18734945 8.25 -0.25 C9.02730469 -0.28351563 9.80460937 -0.31703125 10.60546875 -0.3515625 C16.42997175 -0.45112665 16.42997175 -0.45112665 19.546875 2.015625 C20.02640625 2.67046875 20.5059375 3.3253125 21 4 C20.22398438 3.83628906 19.44796875 3.67257813 18.6484375 3.50390625 C13.9507922 2.855088 9.35986339 2.89359613 4.625 2.9375 C3.23474609 2.94426758 3.23474609 2.94426758 1.81640625 2.95117188 C-0.45579709 2.96288426 -2.72786388 2.97928628 -5 3 C-5 2.67 -5 2.34 -5 2 C-3.35 2 -1.7 2 0 2 C0 1.34 0 0.68 0 0 Z " fill="#6F7326" transform="translate(33,219)"/>
<path d="M0 0 C0.33 0 0.66 0 1 0 C1 1.98 1 3.96 1 6 C1.55719727 5.83701416 2.11439453 5.67402832 2.68847656 5.50610352 C5.19510339 4.9572825 7.41980924 4.88670615 9.984375 4.90234375 C10.91894531 4.90556641 11.85351562 4.90878906 12.81640625 4.91210938 C13.78449219 4.92048828 14.75257812 4.92886719 15.75 4.9375 C16.73355469 4.94201172 17.71710938 4.94652344 18.73046875 4.95117188 C21.15370791 4.96293517 23.57682273 4.97937316 26 5 C22.11835723 8.21568765 19.75521666 8.35186365 14.6875 8.25 C13.41261719 8.23453125 12.13773438 8.2190625 10.82421875 8.203125 C7.1382678 8.00734415 3.63922257 7.58378215 0 7 C0 4.69 0 2.38 0 0 Z " fill="#364112" transform="translate(52,141)"/>
<path d="M0 0 C1.98 0 3.96 0 6 0 C7.39935013 2.79870027 7.25265405 4.90498792 7 8 C6 9.875 6 9.875 4 11 C-1.15031625 11.34335442 -5.9228077 10.84619872 -11 10 C-11 9.67 -11 9.34 -11 9 C-10.00097656 8.93941406 -9.00195312 8.87882813 -7.97265625 8.81640625 C-6.03712891 8.69072266 -6.03712891 8.69072266 -4.0625 8.5625 C-2.77472656 8.48128906 -1.48695312 8.40007812 -0.16015625 8.31640625 C2.86023957 8.35080812 2.86023957 8.35080812 4 7 C4.04063832 5.33382885 4.042721 3.66611905 4 2 C2.68 1.34 1.36 0.68 0 0 Z " fill="#C7B652" transform="translate(102,208)"/>
<path d="M0 0 C0.33 0 0.66 0 1 0 C1.04898438 1.2065625 1.09796875 2.413125 1.1484375 3.65625 C1.22353532 5.27085306 1.29908003 6.88543539 1.375 8.5 C1.4059375 9.29148438 1.436875 10.08296875 1.46875 10.8984375 C1.72856223 16.18128612 2.56333706 20.90743869 4 26 C2 25 2 25 0.9375 23.0625 C-0.37784905 18.76569309 -0.67036215 14.46746033 -1 10 C-1.33 12.31 -1.66 14.62 -2 17 C-2.33 17 -2.66 17 -3 17 C-3.02698189 15.37509046 -3.04638757 13.75005367 -3.0625 12.125 C-3.07410156 11.22007812 -3.08570313 10.31515625 -3.09765625 9.3828125 C-3 7 -3 7 -2 5 C-1.34 5 -0.68 5 0 5 C0 3.35 0 1.7 0 0 Z " fill="#B8B060" transform="translate(37,177)"/>
<path d="M0 0 C4.55015893 1.51671964 6.50057264 5.16891053 9 9 C8.34 10.32 7.68 11.64 7 13 C7 12.01 7 11.02 7 10 C6.401875 9.9175 5.80375 9.835 5.1875 9.75 C2.29917175 8.75971603 1.47257348 7.65063227 0 5 C-0.1875 2.25 -0.1875 2.25 0 0 Z " fill="#162A09" transform="translate(105,181)"/>
<path d="M0 0 C0 0.99 0 1.98 0 3 C-2.5 4.6875 -2.5 4.6875 -5 6 C-3.68 6.33 -2.36 6.66 -1 7 C-3.97 8.32 -6.94 9.64 -10 11 C-10.3125 8.25 -10.3125 8.25 -10 5 C-7.03894034 2.03894034 -4.33243965 0 0 0 Z " fill="#66691C" transform="translate(114,166)"/>
<path d="M0 0 C0.226875 0.5775 0.45375 1.155 0.6875 1.75 C2.19871929 4.65060953 2.19871929 4.65060953 7 8 C2.38 8 -2.24 8 -7 8 C-1.125 1.125 -1.125 1.125 0 0 Z " fill="#0B2106" transform="translate(97,208)"/>
<path d="M0 0 C1.24926635 0.70962646 2.49931697 1.41787338 3.75 2.125 C4.8225 2.74375 5.895 3.3625 7 4 C6.67 4.99 6.34 5.98 6 7 C2.59687262 5.94124926 -0.01353231 4.99097846 -3 3 C-4.65549531 2.61500109 -6.3222433 2.27206865 -8 2 C-8 1.01 -8 0.02 -8 -1 C-4.50784604 -2.24719784 -3.14182743 -1.88509646 0 0 Z " fill="#7C7C29" transform="translate(23,166)"/>
<path d="M0 0 C0.99 0 1.98 0 3 0 C3.66 4.29 4.32 8.58 5 13 C2.69 13 0.38 13 -2 13 C-1.34 8.71 -0.68 4.42 0 0 Z " fill="#BEAD44" transform="translate(66,124)"/>
<path d="M0 0 C0.44921875 2.546875 0.44921875 2.546875 0.6875 5.75 C0.77386719 6.79671875 0.86023437 7.8434375 0.94921875 8.921875 C0.99678165 11.80491852 0.68699305 14.21070489 0 17 C-0.66 17 -1.32 17 -2 17 C-1.67 12.71 -1.34 8.42 -1 4 C-2.98 3.34 -4.96 2.68 -7 2 C-6 0 -6 0 -4.0625 -0.6875 C-2 -1 -2 -1 0 0 Z " fill="#C9B751" transform="translate(37,165)"/>
<path d="M0 0 C5.26053037 -0.31563182 8.44573816 0.33409063 13 3 C13 3.99 13 4.98 13 6 C12.34 6 11.68 6 11 6 C11.474375 6.9075 11.94875 7.815 12.4375 8.75 C13.64628821 11.26427949 14.47993886 13.29568209 15 16 C11.85957229 13.48765783 10.84770582 11.81239015 10.3125 7.9375 C9.99366593 5.82449123 9.99366593 5.82449123 9 4 C6.12405782 2.39519249 3.21800126 1.63565457 0 1 C0 0.67 0 0.34 0 0 Z " fill="#A69B3B" transform="translate(80,151)"/>
<path d="M0 0 C0.66 0 1.32 0 2 0 C2.29357791 3.05321024 2.43479122 5.95646143 2 9 C-0.375 11.5625 -0.375 11.5625 -3 13 C-3.66 13 -4.32 13 -5 13 C-5 13.66 -5 14.32 -5 15 C-7.31 15.33 -9.62 15.66 -12 16 C-12.33 15.34 -12.66 14.68 -13 14 C-12.31292969 13.75765625 -11.62585938 13.5153125 -10.91796875 13.265625 C-10.01691406 12.93046875 -9.11585937 12.5953125 -8.1875 12.25 C-6.84751953 11.76273438 -6.84751953 11.76273438 -5.48046875 11.265625 C-2.70494363 9.84945155 -1.54548165 8.6842576 0 6 C0.25086724 2.83267579 0.25086724 2.83267579 0 0 Z " fill="#717421" transform="translate(37,148)"/>
<path d="M0 0 C0.66 0 1.32 0 2 0 C3.02611949 1.65071396 4.02308143 3.31970006 5 5 C5.8353125 5.7425 5.8353125 5.7425 6.6875 6.5 C8 8 8 8 8.375 10.5625 C8.25125 11.366875 8.1275 12.17125 8 13 C4.77208445 15.1519437 3.71599191 15.20086443 0 15 C1.32 14.34 2.64 13.68 4 13 C4.40586646 9.4486685 4.21755407 8.28553971 2 5.375 C1.01 4.199375 1.01 4.199375 0 3 C0 2.01 0 1.02 0 0 Z " fill="#978C31" transform="translate(105,189)"/>
<path d="M0 0 C0 0.66 0 1.32 0 2 C1.32 2.66 2.64 3.32 4 4 C-1.94 4 -7.88 4 -14 4 C-9.42715431 1.71357715 -5.15703284 0 0 0 Z " fill="#D1C05E" transform="translate(122,171)"/>
<path d="M0 0 C-0.33 0.66 -0.66 1.32 -1 2 C2.465 3.485 2.465 3.485 6 5 C5.67 6.32 5.34 7.64 5 9 C5 8.01 5 7.02 5 6 C3.94039062 5.80664062 2.88078125 5.61328125 1.7890625 5.4140625 C0.40096447 5.15144936 -0.98705224 4.88840614 -2.375 4.625 C-3.07367188 4.49867188 -3.77234375 4.37234375 -4.4921875 4.2421875 C-9.7734375 3.2265625 -9.7734375 3.2265625 -12 1 C-7.95858806 0.36605303 -4.0934693 -0.12404452 0 0 Z " fill="#7E7A1F" transform="translate(84,150)"/>
<path d="M0 0 C0.66 0 1.32 0 2 0 C2.268125 1.258125 2.53625 2.51625 2.8125 3.8125 C3.85521851 8.10026119 3.85521851 8.10026119 7 11 C9.30988315 11.74386068 11.64315944 12.42190703 14 13 C14 13.33 14 13.66 14 14 C8.71442634 14.50338797 6.09049661 13.34676996 2 10 C-0.35735328 6.78542734 -0.17742689 3.90339153 0 0 Z " fill="#9D912F" transform="translate(94,149)"/>
<path d="M0 0 C0 0.99 0 1.98 0 3 C-3.1983882 5.6653235 -5.18628475 6.9397248 -9.375 7.25 C-10.24125 7.1675 -11.1075 7.085 -12 7 C-12.33 6.34 -12.66 5.68 -13 5 C-8.71146306 3.11304374 -4.47238653 1.41807378 0 0 Z " fill="#B3A956" transform="translate(20,188)"/>
<path d="M0 0 C0.66 0 1.32 0 2 0 C2 1.98 2 3.96 2 6 C2.99 6 3.98 6 5 6 C5 6.66 5 7.32 5 8 C3.35 8.66 1.7 9.32 0 10 C0 9.01 0 8.02 0 7 C-1.32 6.67 -2.64 6.34 -4 6 C-2.84826645 3.53199953 -1.95216435 1.95216435 0 0 Z " fill="#95924A" transform="translate(115,205)"/>
<path d="M0 0 C0.93423645 3.01031744 1.04449911 3.86650268 0 7 C0.66 7 1.32 7 2 7 C1.34 9.97 0.68 12.94 0 16 C-0.99 16 -1.98 16 -3 16 C-2.52013969 10.43109483 -1.70084819 5.32932432 0 0 Z " fill="#787C35" transform="translate(388,160)"/>
<path d="M0 0 C0.33 0.66 0.66 1.32 1 2 C0.67 2.66 0.34 3.32 0 4 C-1.216875 3.855625 -2.43375 3.71125 -3.6875 3.5625 C-9.7787685 2.88136774 -15.88764914 2.44401931 -22 2 C-22 1.67 -22 1.34 -22 1 C-14.74 0.67 -7.48 0.34 0 0 Z " fill="#122608" transform="translate(83,146)"/>
<path d="M0 0 C0.33 0.66 0.66 1.32 1 2 C0.525625 2.5775 0.05125 3.155 -0.4375 3.75 C-2.12195746 5.82603084 -2.12195746 5.82603084 -2.3125 8 C-3.46251941 11.34551102 -6.00433512 12.38234096 -9 14 C-9.99 13.67 -10.98 13.34 -12 13 C-7.25 9 -7.25 9 -5 9 C-4.9175 8.443125 -4.835 7.88625 -4.75 7.3125 C-3.77389987 4.30285794 -2.04811186 2.37845248 0 0 Z " fill="#A59D41" transform="translate(92,205)"/>
<path d="M0 0 C0.33 1.65 0.66 3.3 1 5 C0.34 5 -0.32 5 -1 5 C-1 4.34 -1 3.68 -1 3 C-2.32 3 -3.64 3 -5 3 C-5.33 3.99 -5.66 4.98 -6 6 C-6 5.01 -6 4.02 -6 3 C-6.66 3 -7.32 3 -8 3 C-8.33 4.32 -8.66 5.64 -9 7 C-9.1875 4.625 -9.1875 4.625 -9 2 C-5.5647952 -0.29013653 -4.014669 -0.17842973 0 0 Z " fill="#293A11" transform="translate(106,147)"/>
<path d="M0 0 C-0.34339653 2.57547398 -0.60006716 3.68894113 -2.6875 5.3125 C-5.72203131 6.21465796 -7.94880471 5.69345348 -11 5 C-10.67 4.01 -10.34 3.02 -10 2 C-8.22265625 1.26953125 -8.22265625 1.26953125 -6.0625 0.8125 C-4.99708984 0.57466797 -4.99708984 0.57466797 -3.91015625 0.33203125 C-2 0 -2 0 0 0 Z " fill="#938116" transform="translate(74,220)"/>
<path d="M0 0 C4.1724106 0.51881113 6.25416821 1.71151274 9.3125 4.5625 C10.00988281 5.20316406 10.70726563 5.84382812 11.42578125 6.50390625 C11.94527344 6.99761719 12.46476562 7.49132812 13 8 C10 9 10 9 8.125 8.375 C4.78165093 6.21165648 1.79553604 3.59107208 0 0 Z " fill="#767C2C" transform="translate(106,180)"/>
<path d="M0 0 C0.763125 0.20625 1.52625 0.4125 2.3125 0.625 C2.6425 1.945 2.9725 3.265 3.3125 4.625 C1.0025 4.295 -1.3075 3.965 -3.6875 3.625 C-3.6875 4.285 -3.6875 4.945 -3.6875 5.625 C-4.6775 5.625 -5.6675 5.625 -6.6875 5.625 C-6.375 3.75 -6.375 3.75 -5.6875 1.625 C-2.6875 -0.375 -2.6875 -0.375 0 0 Z " fill="#F2E6AC" transform="translate(68.6875,136.375)"/>
<path d="M0 0 C2.0625 0.4375 2.0625 0.4375 4 1 C4 1.99 4 2.98 4 4 C3.01 4.495 3.01 4.495 2 5 C1.27840576 6.64363134 0.60648579 8.31050386 0 10 C-0.33 9.01 -0.66 8.02 -1 7 C-1.66 7 -2.32 7 -3 7 C-1.125 1.125 -1.125 1.125 0 0 Z " fill="#B1AA65" transform="translate(84,131)"/>
<path d="M0 0 C1.61107914 4.02769785 0.47759396 7.05974943 -1 11 C-3 13.4375 -3 13.4375 -5 15 C-5.66 15 -6.32 15 -7 15 C-6.731875 14.484375 -6.46375 13.96875 -6.1875 13.4375 C-5.23602536 11.4844731 -4.35577715 9.49681334 -3.5 7.5 C-2.40455087 4.94395203 -1.28143314 2.46429451 0 0 Z " fill="#C5BA66" transform="translate(96,198)"/>
<path d="M0 0 C1.91731918 0.11455681 3.8338675 0.24206258 5.75 0.375 C7.35101563 0.47941406 7.35101563 0.47941406 8.984375 0.5859375 C11.80206432 0.9728223 13.5830366 1.55686166 16 3 C16 3.66 16 4.32 16 5 C15.34 5 14.68 5 14 5 C14 4.34 14 3.68 14 3 C9.38 3 4.76 3 0 3 C0 2.01 0 1.02 0 0 Z " fill="#868634" transform="translate(14,171)"/>
<path d="M0 0 C-5.52660506 3.22385295 -11.66491954 4.31675402 -18 4 C-17 2 -17 2 -15.21484375 1.3671875 C-10.0204739 0.24456211 -5.31341973 -0.19321526 0 0 Z " fill="#22291D" transform="translate(65,153)"/>
<path d="M0 0 C0.66 0.33 1.32 0.66 2 1 C1.33989524 3.84550012 0.48275034 6.52325999 -0.5625 9.25 C-0.83191406 9.95640625 -1.10132813 10.6628125 -1.37890625 11.390625 C-1.58386719 11.92171875 -1.78882813 12.4528125 -2 13 C1.465 12.505 1.465 12.505 5 12 C5 12.66 5 13.32 5 14 C2.03 14 -0.94 14 -4 14 C-3.52372025 12.04096255 -3.04388577 10.08278903 -2.5625 8.125 C-2.29566406 7.03445312 -2.02882813 5.94390625 -1.75390625 4.8203125 C-1 2 -1 2 0 0 Z " fill="#404D1F" transform="translate(396,146)"/>
<path d="M0 0 C2.05078125 0.03255208 4.1015625 0.06510417 6.15234375 0.09765625 C6.15234375 1.08765625 6.15234375 2.07765625 6.15234375 3.09765625 C3.17382812 3.43945312 3.17382812 3.43945312 0.1953125 3.78125 C-2.04162018 4.0693636 -2.04162018 4.0693636 -4.84765625 5.09765625 C-2.44354091 0.12915121 -2.44354091 0.12915121 0 0 Z " fill="#B7AB51" transform="translate(99.84765625,142.90234375)"/>
<path d="M0 0 C1.32 0 2.64 0 4 0 C3.67 3.3 3.34 6.6 3 10 C3.99 10.33 4.98 10.66 6 11 C4.68 11 3.36 11 2 11 C1.87625 10.195625 1.7525 9.39125 1.625 8.5625 C1.315625 7.2940625 1.315625 7.2940625 1 6 C0.34 5.67 -0.32 5.34 -1 5 C-0.67 3.35 -0.34 1.7 0 0 Z " fill="#555E1E" transform="translate(75,126)"/>
<path d="M0 0 C0 0.99 0 1.98 0 3 C0.31088368 4.67099977 0.64080332 6.33871537 1 8 C1.99 8 2.98 8 4 8 C4.66 7.01 5.32 6.02 6 5 C5.67 6.65 5.34 8.3 5 10 C-0.75 10.125 -0.75 10.125 -3 9 C-3.36923077 3.46153846 -3.36923077 3.46153846 -1.5 1.125 C-1.005 0.75375 -0.51 0.3825 0 0 Z " fill="#B0A240" transform="translate(26,194)"/>
<path d="M0 0 C0.99 0.33 1.98 0.66 3 1 C2.34 4.3 1.68 7.6 1 11 C0.01 11 -0.98 11 -2 11 C-1 3.57142857 -1 3.57142857 0 0 Z " fill="#818437" transform="translate(292,165)"/>
<path d="M0 0 C2.97 0.495 2.97 0.495 6 1 C6.33 2.65 6.66 4.3 7 6 C3.37 6 -0.26 6 -4 6 C-2.68 5.67 -1.36 5.34 0 5 C0 3.35 0 1.7 0 0 Z " fill="#A29C48" transform="translate(114,164)"/>
<path d="M0 0 C1.1446875 1.175625 1.1446875 1.175625 2.3125 2.375 C4.90891805 5.07257717 4.90891805 5.07257717 8 7 C8 7.66 8 8.32 8 9 C2.25 8.25 2.25 8.25 0 6 C-0.125 2.875 -0.125 2.875 0 0 Z " fill="#12270B" transform="translate(0,160)"/>
<path d="M0 0 C2.56564327 1.28282164 2.88473433 2.39771344 4 5 C4.36784131 6.3242287 4.71202981 7.65613912 5 9 C3.35 7.68 1.7 6.36 0 5 C-1.65 5.66 -3.3 6.32 -5 7 C-5 6.34 -5 5.68 -5 5 C-4.34 5 -3.68 5 -3 5 C-2.5359375 4.0409375 -2.5359375 4.0409375 -2.0625 3.0625 C-1 1 -1 1 0 0 Z " fill="#B7B058" transform="translate(254,151)"/>
<path d="M0 0 C3.63 0.66 7.26 1.32 11 2 C11.33 2.99 11.66 3.98 12 5 C4.66666667 5.36666667 4.66666667 5.36666667 1.5 3.625 C0 2 0 2 0 0 Z " fill="#CABE68" transform="translate(3,177)"/>
<path d="M0 0 C3 0.3125 3 0.3125 6 1 C6.33 1.66 6.66 2.32 7 3 C5.02 3.33 3.04 3.66 1 4 C0.67 4.99 0.34 5.98 0 7 C-1 6 -1 6 -1.125 3.5 C-1 1 -1 1 0 0 Z " fill="#243611" transform="translate(30,146)"/>
<path d="M0 0 C-0.35049575 3.24208567 -0.56221181 4.61527704 -3.0625 6.8125 C-3.701875 7.204375 -4.34125 7.59625 -5 8 C-5 7.01 -5 6.02 -5 5 C-5.66 4.67 -6.32 4.34 -7 4 C-3.375 0 -3.375 0 0 0 Z " fill="#9D994D" transform="translate(267,139)"/>
<path d="M0 0 C3.14158949 0.93398606 4.7325148 1.66794941 6.8125 4.25 C8.16280181 7.37701471 8.23523553 9.6282908 8 13 C7.67 13 7.34 13 7 13 C7 11.35 7 9.7 7 8 C6.401875 7.731875 5.80375 7.46375 5.1875 7.1875 C2.98180967 5.99012525 1.56416813 4.95521016 0 3 C0 2.01 0 1.02 0 0 Z " fill="#60681D" transform="translate(107,189)"/>
<path d="M0 0 C1.60517097 0.08733576 3.20921662 0.19552224 4.8125 0.3125 C6.15248047 0.39951172 6.15248047 0.39951172 7.51953125 0.48828125 C10 1 10 1 13 4 C9.04 3.67 5.08 3.34 1 3 C0.67 2.01 0.34 1.02 0 0 Z " fill="#A29637" transform="translate(36,216)"/>
<path d="M0 0 C1.32 0.66 2.64 1.32 4 2 C4 3.32 4 4.64 4 6 C0.25 7.125 0.25 7.125 -2 6 C-2.33 6.66 -2.66 7.32 -3 8 C-3 7.01 -3 6.02 -3 5 C-2.01 5 -1.02 5 0 5 C0 3.35 0 1.7 0 0 Z " fill="#7C7D3D" transform="translate(18,205)"/>
<path d="M0 0 C1.98073365 0.280828 3.95958448 0.57496614 5.9375 0.875 C7.59072266 1.11863281 7.59072266 1.11863281 9.27734375 1.3671875 C10.17582031 1.57601562 11.07429688 1.78484375 12 2 C12.33 2.66 12.66 3.32 13 4 C11.58376784 4.05447047 10.16691809 4.09300508 8.75 4.125 C7.96109375 4.14820313 7.1721875 4.17140625 6.359375 4.1953125 C3.79268059 3.9828378 2.2083933 3.28654105 0 2 C0 1.34 0 0.68 0 0 Z " fill="#262C1C" transform="translate(75,153)"/>
<path d="M0 0 C0.33 0 0.66 0 1 0 C0.67 2.64 0.34 5.28 0 8 C-0.99 8.33 -1.98 8.66 -3 9 C-4.37195574 10.29355827 -5.71182656 11.62298702 -7 13 C-5.62262427 8.98265411 -3.66973875 6.27258299 -1 3 C-0.67 2.01 -0.34 1.02 0 0 Z " fill="#525E38" transform="translate(96,193)"/>
<path d="M0 0 C0.556875 0.28875 1.11375 0.5775 1.6875 0.875 C4.08494645 2.0413253 6.51596939 3.0339881 9 4 C9 4.66 9 5.32 9 6 C7.3125 6.8125 7.3125 6.8125 5 7 C2.25 4.6875 2.25 4.6875 0 2 C0 1.34 0 0.68 0 0 Z " fill="#B1A64C" transform="translate(112,186)"/>
<path d="M0 0 C2.31 0 4.62 0 7 0 C7 1.65 7 3.3 7 5 C3.32589215 6.17571451 -0.16929183 6.07366746 -4 6 C-4 5.67 -4 5.34 -4 5 C-1.03 4.01 1.94 3.02 5 2 C3.35 1.67 1.7 1.34 0 1 C0 0.67 0 0.34 0 0 Z " fill="#616A27" transform="translate(374,179)"/>
<path d="M0 0 C2.97 0 5.94 0 9 0 C9 0.99 9 1.98 9 3 C6.03 3 3.06 3 0 3 C0 2.01 0 1.02 0 0 Z " fill="#AFA856" transform="translate(157,140)"/>
<path d="M0 0 C1.32 0 2.64 0 4 0 C4.309375 0.78375 4.61875 1.5675 4.9375 2.375 C5.92875038 4.92330128 5.92875038 4.92330128 7 7 C5.68 7.33 4.36 7.66 3 8 C2.67 6.68 2.34 5.36 2 4 C1.34 4 0.68 4 0 4 C0 2.68 0 1.36 0 0 Z " fill="#BCB266" transform="translate(48,131)"/>
<path d="M0 0 C0.33 0 0.66 0 1 0 C1.66 2.31 2.32 4.62 3 7 C5.31 7.33 7.62 7.66 10 8 C10 8.33 10 8.66 10 9 C8.54207116 9.05399736 7.08357288 9.09279177 5.625 9.125 C4.81289063 9.14820313 4.00078125 9.17140625 3.1640625 9.1953125 C1 9 1 9 -1 7 C-1.1875 3.9375 -1.1875 3.9375 -1 1 C-0.67 0.67 -0.34 0.34 0 0 Z " fill="#D3C05C" transform="translate(27,209)"/>
<path d="M0 0 C5.73842251 -0.20413361 10.60539047 -0.27141454 16 2 C12.1496895 4.56687367 10.41430237 3.83288724 6 3 C6 2.67 6 2.34 6 2 C3.03 1.505 3.03 1.505 0 1 C0 0.67 0 0.34 0 0 Z " fill="#5D6422" transform="translate(13,175)"/>
<path d="M0 0 C2 2 2 2 2.125 4.625 C2.08375 5.40875 2.0425 6.1925 2 7 C0.35 7.33 -1.3 7.66 -3 8 C-3 7.34 -3 6.68 -3 6 C-4.32 5.34 -5.64 4.68 -7 4 C-4.69 4.33 -2.38 4.66 0 5 C-0.33 4.01 -0.66 3.02 -1 2 C-0.67 1.34 -0.34 0.68 0 0 Z " fill="#3B4510" transform="translate(30,171)"/>
<path d="M0 0 C1.8871875 0.061875 1.8871875 0.061875 3.8125 0.125 C3.4825 1.115 3.1525 2.105 2.8125 3.125 C3.4725 3.455 4.1325 3.785 4.8125 4.125 C0.34410785 4.33778058 -3.01012526 3.71638085 -7.1875 2.125 C-4.09861478 0.06574319 -3.47814073 -0.1140374 0 0 Z " fill="#979741" transform="translate(349.1875,162.875)"/>
<path d="M0 0 C-1.69022623 2.04606333 -2.83804192 2.94459329 -5.375 3.8125 C-8.449852 4.03213229 -10.25356983 3.33398037 -13 2 C-13 1.67 -13 1.34 -13 1 C-8.62426048 0.40667939 -4.42471556 -0.13827236 0 0 Z " fill="#89883D" transform="translate(30,157)"/>
<path d="M0 0 C1.12894876 0.93274109 2.25300876 1.87140122 3.375 2.8125 C4.00148438 3.33457031 4.62796875 3.85664063 5.2734375 4.39453125 C7 6 7 6 9 9 C5.12270528 8.42558597 2.78480942 6.70745361 0 4 C0 2.68 0 1.36 0 0 Z " fill="#B6AB50" transform="translate(43,208)"/>
<path d="M0 0 C-2.64738916 1.4606285 -3.89448334 2 -7 2 C-7.66 3.32 -8.32 4.64 -9 6 C-9 5.34 -9 4.68 -9 4 C-9.66 4 -10.32 4 -11 4 C-10 1 -10 1 -7.75 -0.25 C-4.71763271 -1.07700926 -2.98879276 -0.85394079 0 0 Z " fill="#A19940" transform="translate(34,208)"/>
<path d="M0 0 C9.41002278 -0.18451025 9.41002278 -0.18451025 14 1 C10.70901716 3.19398856 10.15167419 3.21503664 6.4375 2.75 C5.65246094 2.66234375 4.86742188 2.5746875 4.05859375 2.484375 C2 2 2 2 0 0 Z " fill="#83822E" transform="translate(106,177)"/>
<path d="M0 0 C2.31 0 4.62 0 7 0 C7.33 2.31 7.66 4.62 8 7 C6.68 6.34 5.36 5.68 4 5 C4 4.01 4 3.02 4 2 C2.68 1.34 1.36 0.68 0 0 Z " fill="#3D4621" transform="translate(82,156)"/>
<path d="M0 0 C0.8125 1.6875 0.8125 1.6875 1 4 C-1.125 6.8125 -1.125 6.8125 -4 9 C-6.8125 8.8125 -6.8125 8.8125 -9 8 C-8.01 7.34 -7.02 6.68 -6 6 C-2.46321928 3.45954713 -2.46321928 3.45954713 0 0 Z " fill="#324014" transform="translate(41,155)"/>
<path d="M0 0 C0.33 0 0.66 0 1 0 C1.34833144 4.87664009 0.41685712 7.77050005 -2 12 C-2.66 12 -3.32 12 -4 12 C-3.33989524 9.15449988 -2.48275034 6.47674001 -1.4375 3.75 C-1.16808594 3.04359375 -0.89867188 2.3371875 -0.62109375 1.609375 C-0.41613281 1.07828125 -0.21117188 0.5471875 0 0 Z " fill="#DCD39A" transform="translate(99,194)"/>
<path d="M0 0 C0.66 0 1.32 0 2 0 C1.67 2.64 1.34 5.28 1 8 C-0.65 8.33 -2.3 8.66 -4 9 C-2.68 6.03 -1.36 3.06 0 0 Z " fill="#716E19" transform="translate(31,181)"/>
<path d="M0 0 C0.66 0.99 1.32 1.98 2 3 C2.33 2.34 2.66 1.68 3 1 C4.32 1 5.64 1 7 1 C7 1.99 7 2.98 7 4 C4.69 4.33 2.38 4.66 0 5 C-0.66 4.01 -1.32 3.02 -2 2 C-1.34 2 -0.68 2 0 2 C0 1.34 0 0.68 0 0 Z " fill="#888439" transform="translate(28,149)"/>
<path d="M0 0 C0.3125 3.25 0.3125 3.25 0 7 C-2.5 9.4375 -2.5 9.4375 -5 11 C-4.67 9.35 -4.34 7.7 -4 6 C-3.34 6 -2.68 6 -2 6 C-2.33 4.35 -2.66 2.7 -3 1 C-1 0 -1 0 0 0 Z " fill="#1E3011" transform="translate(23,210)"/>
<path d="M0 0 C0.33 1.32 0.66 2.64 1 4 C2.32 3.67 3.64 3.34 5 3 C4.67 4.32 4.34 5.64 4 7 C2.68 6.67 1.36 6.34 0 6 C-0.38218767 4.34385343 -0.71395102 2.67542976 -1 1 C-0.67 0.67 -0.34 0.34 0 0 Z " fill="#2B3A11" transform="translate(26,196)"/>
<path d="M0 0 C0.80824219 0.11085937 1.61648437 0.22171875 2.44921875 0.3359375 C3.37154297 0.47902344 3.37154297 0.47902344 4.3125 0.625 C3.9825 1.285 3.6525 1.945 3.3125 2.625 C2.6525 2.295 1.9925 1.965 1.3125 1.625 C1.3125 2.285 1.3125 2.945 1.3125 3.625 C0.6525 3.625 -0.0075 3.625 -0.6875 3.625 C-0.6875 2.965 -0.6875 2.305 -0.6875 1.625 C-2.9975 1.625 -5.3075 1.625 -7.6875 1.625 C-4.33422361 -0.61051759 -3.78006343 -0.54783528 0 0 Z " fill="#303F14" transform="translate(112.6875,162.375)"/>
<path d="M0 0 C1.3410477 0.75733274 2.67269781 1.53132736 4 2.3125 C5.11375 2.95638672 5.11375 2.95638672 6.25 3.61328125 C6.8275 4.07089844 7.405 4.52851563 8 5 C8 5.99 8 6.98 8 8 C4.67689517 6.83242263 2.16638868 5.85051143 0 3 C0 2.01 0 1.02 0 0 Z " fill="#273711" transform="translate(94,157)"/>
<path d="M0 0 C3.63 0.33 7.26 0.66 11 1 C10.01 2.485 10.01 2.485 9 4 C4.53159589 3.50351065 3.31012244 3.31012244 0 0 Z " fill="#87863B" transform="translate(105,157)"/>
<path d="M0 0 C-0.33 0.66 -0.66 1.32 -1 2 C-3.97 2 -6.94 2 -10 2 C-10 1.34 -10 0.68 -10 0 C-6.33694766 -0.74926071 -3.57644848 -1.2380014 0 0 Z " fill="#D5C568" transform="translate(127,181)"/>
<path d="M0 0 C0 0.99 0 1.98 0 3 C-1.96466413 4.06775224 -3.96855359 5.06553465 -6 6 C-6.66 5.67 -7.32 5.34 -8 5 C-5.72541886 1.64228499 -4.30291326 0 0 0 Z " fill="#7F7F2C" transform="translate(114,166)"/>
<path d="M0 0 C0.33 1.65 0.66 3.3 1 5 C-1.31 4.67 -3.62 4.34 -6 4 C-6 3.01 -6 2.02 -6 1 C-3.92446352 0.4465236 -2.15634036 0 0 0 Z " fill="#949344" transform="translate(21,164)"/>
<path d="M0 0 C1.98 0 3.96 0 6 0 C6 0.99 6 1.98 6 3 C4.68 3 3.36 3 2 3 C2 3.66 2 4.32 2 5 C1.34 4.67 0.68 4.34 0 4 C0 2.68 0 1.36 0 0 Z " fill="#696F38" transform="translate(115,216)"/>
<path d="M0 0 C0.99 0.33 1.98 0.66 3 1 C2.67 1.99 2.34 2.98 2 4 C2.66 4.33 3.32 4.66 4 5 C3.34 5 2.68 5 2 5 C1.67 5.66 1.34 6.32 1 7 C0.34 6.67 -0.32 6.34 -1 6 C-1.042721 4.33388095 -1.04063832 2.66617115 -1 1 C-0.67 0.67 -0.34 0.34 0 0 Z " fill="#30401A" transform="translate(113,211)"/>
<path d="M0 0 C2.33333333 2.33333333 4.66666667 4.66666667 7 7 C6.67 7.99 6.34 8.98 6 10 C2.46413986 6.82679218 0.41421969 4.83256305 0 0 Z " fill="#858C44" transform="translate(41,203)"/>
<path d="M0 0 C0.33 0.66 0.66 1.32 1 2 C3.64 1.34 6.28 0.68 9 0 C6.93243723 2.7972908 5.85559629 3.02692273 2.3125 3.6875 C1.219375 3.790625 0.12625 3.89375 -1 4 C-0.67 2.68 -0.34 1.36 0 0 Z " fill="#6F762B" transform="translate(432,178)"/>
<path d="M0 0 C0.33 0.99 0.66 1.98 1 3 C-0.65 4.32 -2.3 5.64 -4 7 C-4 6.34 -4 5.68 -4 5 C-4.99 4.67 -5.98 4.34 -7 4 C-4.69 2.68 -2.38 1.36 0 0 Z " fill="#B8AF60" transform="translate(136,165)"/>
<path d="M0 0 C3.125 -0.1875 3.125 -0.1875 6 0 C6.33 0.66 6.66 1.32 7 2 C4.04335481 3.4783226 1.25770263 3.06032783 -2 3 C-1.34 2.01 -0.68 1.02 0 0 Z " fill="#C7BB65" transform="translate(116,158)"/>
<path d="M0 0 C1.49080078 0.16628906 1.49080078 0.16628906 3.01171875 0.3359375 C3.77097656 0.43132812 4.53023437 0.52671875 5.3125 0.625 C5.3125 0.955 5.3125 1.285 5.3125 1.625 C0.6925 2.285 -3.9275 2.945 -8.6875 3.625 C-8.6875 2.965 -8.6875 2.305 -8.6875 1.625 C-5.1388865 -0.74074234 -4.1110475 -0.48365265 0 0 Z " fill="#5F651B" transform="translate(90.6875,219.375)"/>
<path d="M0 0 C0 0.66 0 1.32 0 2 C-0.78375 2.12375 -1.5675 2.2475 -2.375 2.375 C-5.14057822 2.79117993 -5.14057822 2.79117993 -7 5 C-7 3.35 -7 1.7 -7 0 C-4.3333581 -1.33332095 -2.83319697 -0.67102033 0 0 Z " fill="#696920" transform="translate(109,198)"/>
<path d="M0 0 C2.46278801 2.46278801 2.99771255 4.70676982 4 8 C3.34 8 2.68 8 2 8 C1.67 8.66 1.34 9.32 1 10 C-0.1577506 6.52674819 -0.06866652 3.63932552 0 0 Z " fill="#706D19" transform="translate(103,181)"/>
<path d="M0 0 C3.63 0 7.26 0 11 0 C9.515 1.485 9.515 1.485 8 3 C5.15124622 2.79846293 2.74900747 1.85624823 0 1 C0 0.67 0 0.34 0 0 Z " fill="#959039" transform="translate(15,178)"/>
<path d="M0 0 C0 1.65 0 3.3 0 5 C-1.65 4.67 -3.3 4.34 -5 4 C-5 3.01 -5 2.02 -5 1 C-3 0 -3 0 0 0 Z " fill="#E9DD9D" transform="translate(83,138)"/>
<path d="M0 0 C0.66 0 1.32 0 2 0 C2.1875 2.375 2.1875 2.375 2 5 C-1.22791555 7.1519437 -2.28400809 7.20086443 -6 7 C-5.071875 6.6596875 -5.071875 6.6596875 -4.125 6.3125 C-1.38589791 4.62070165 -0.94975528 3.00755839 0 0 Z " fill="#B5A845" transform="translate(111,197)"/>
<path d="M0 0 C1.875 1.25 1.875 1.25 3.875 3.25 C1.875 4.25 1.875 4.25 -0.0703125 3.69140625 C-0.78960937 3.40136719 -1.50890625 3.11132812 -2.25 2.8125 C-2.97445312 2.52503906 -3.69890625 2.23757812 -4.4453125 1.94140625 C-5.27675781 1.59916016 -5.27675781 1.59916016 -6.125 1.25 C-2.69883966 -0.95253165 -2.69883966 -0.95253165 0 0 Z " fill="#313E12" transform="translate(48.125,215.75)"/>
<path d="M0 0 C0.99 0 1.98 0 3 0 C4.35439668 2.70879335 4.06501451 5.00933268 4 8 C1.10067643 5.60490662 0.49831724 3.68754757 0 0 Z " fill="#A9A44C" transform="translate(108,209)"/>
<path d="M0 0 C-0.33 0.99 -0.66 1.98 -1 3 C-3.64 3 -6.28 3 -9 3 C-8.67 2.34 -8.34 1.68 -8 1 C-5.30114269 0.42577504 -2.76207303 0 0 0 Z " fill="#9C9945" transform="translate(121,171)"/>
<path d="M0 0 C0.66 0.33 1.32 0.66 2 1 C1.67 1.99 1.34 2.98 1 4 C-0.98 4.33 -2.96 4.66 -5 5 C-4 2 -4 2 -2.0625 0.75 C-1.381875 0.5025 -0.70125 0.255 0 0 Z " fill="#223413" transform="translate(130,165)"/>
<path d="M0 0 C0.66 0 1.32 0 2 0 C1.50168276 3.68754757 0.89932357 5.60490662 -2 8 C-2.66 7.67 -3.32 7.34 -4 7 C-3.525625 6.21625 -3.05125 5.4325 -2.5625 4.625 C-1.66101977 3.11051322 -0.78820515 1.5764103 0 0 Z " fill="#DCCC6A" transform="translate(42,157)"/>
<path d="M0 0 C1.32 0 2.64 0 4 0 C4.66 1.32 5.32 2.64 6 4 C4.35 4 2.7 4 1 4 C0.67 2.68 0.34 1.36 0 0 Z " fill="#817E35" transform="translate(101,150)"/>
<path d="M0 0 C2.375 0.1875 2.375 0.1875 5 1 C6.3125 3.5625 6.3125 3.5625 7 6 C6.01 6.495 6.01 6.495 5 7 C3.35 4.69 1.7 2.38 0 0 Z " fill="#88822C" transform="translate(106,180)"/>
<path d="M0 0 C0.99 0 1.98 0 3 0 C2.67 1.98 2.34 3.96 2 6 C1.01 6.33 0.02 6.66 -1 7 C-0.67 4.69 -0.34 2.38 0 0 Z " fill="#9F9C47" transform="translate(294,160)"/>
<path d="M0 0 C0.66 0 1.32 0 2 0 C1.25 4.75 1.25 4.75 -1 7 C-1.66 6.34 -2.32 5.68 -3 5 C-1.625 2.5 -1.625 2.5 0 0 Z " fill="#95934E" transform="translate(134,155)"/>
<path d="M0 0 C1.32 0.33 2.64 0.66 4 1 C4 1.99 4 2.98 4 4 C2.02 4 0.04 4 -2 4 C-1.34 2.68 -0.68 1.36 0 0 Z " fill="#DCCC71" transform="translate(66,133)"/>
</svg>
